<?xml version="1.0" encoding="UTF-8" standalone="no"?>
<!DOCTYPE svg PUBLIC "-//W3C//DTD SVG 1.1//EN" "http://www.w3.org/Graphics/SVG/1.1/DTD/svg11.dtd">
<!-- Created with Vectornator (http://vectornator.io/) -->
<svg height="100%" stroke-miterlimit="10" style="fill-rule:nonzero;clip-rule:evenodd;stroke-linecap:round;stroke-linejoin:round;" version="1.1" viewBox="0 0 1820 470" width="100%" xml:space="preserve" xmlns="http://www.w3.org/2000/svg" xmlns:vectornator="http://vectornator.io" xmlns:xlink="http://www.w3.org/1999/xlink">
<defs/>
<g id="Ebene-1" vectornator:layerName="Ebene 1">
<path d="M352.5 19C349.5 21 346 22 342 22C338 22 335.333 22.5 334 23.5C332.667 24.5 331.833 26 331.5 28C331.167 30 330.333 31.8333 329 33.5C327.667 35.1667 327.167 40.1667 327.5 48.5C327.667 52.6667 327.833 56.8333 328 61C327.167 60.6667 326.333 60.3333 325.5 60C323.833 59.3333 319.667 61 313 65C306.333 69 296.5 67.8333 283.5 61.5C270.5 55.1667 260.667 50.8333 254 48.5C247.333 46.1667 242.5 45 239.5 45C236.5 45 208.5 61 155.5 93C102.5 125 66.3333 147.5 47 160.5C27.6667 173.5 17.6667 181 17 183C16.3333 185 16 195.333 16 214C16 232.667 16.5 243 17.5 245C18.5 247 22.8333 250.333 30.5 255C34.3333 257.333 38.1667 259.667 42 262C39.6667 264.5 37.3333 267 35 269.5C30.3333 274.5 28.3333 286.333 29 305C29.6667 323.667 31 334.667 33 338C35 341.333 41.8333 346.167 53.5 352.5C65.1667 358.833 74.3333 364.333 81 369C87.6667 373.667 94.5 377.667 101.5 381C108.5 384.333 125.167 394.333 151.5 411C177.833 427.667 193.833 437.5 199.5 440.5C205.167 443.5 209.5 445.333 212.5 446C215.5 446.667 270 413.833 376 347.5C482 281.167 535.5 236.333 536.5 213C537.5 189.667 537.833 170 537.5 154C537.167 138 535 128.333 531 125C527 121.667 518.667 117 506 111C493.333 105 487.167 98.5 487.5 91.5C487.833 84.5 486.833 80 484.5 78C482.167 76 481 73.6667 481 71C481 68.3333 478.333 66.3333 473 65C467.667 63.6667 464 62.3333 462 61C460 59.6667 457 59 453 59C449 59 445.5 59.8333 442.5 61.5C439.5 63.1667 436.333 64 433 64C429.667 64 427.333 65.6667 426 69C425.333 70.6667 424.667 72.3333 424 74C418.667 71.5 413.333 69 408 66.5C397.333 61.5 391.5 57.1667 390.5 53.5C389.5 49.8333 389.333 46.3333 390 43C390.667 39.6667 390.5 37.3333 389.5 36C388.5 34.6667 388 32.3333 388 29C388 25.6667 385.833 23.8333 381.5 23.5C377.167 23.1667 373.5 21.8333 370.5 19.5C367.5 17.1667 364.5 16 361.5 16C358.5 16 355.5 17 352.5 19ZM361.5 19C363.167 19 364.5 19.5 365.5 20.5C366 21 366.5 21.5 367 22C365 22 363 22 361 22C359 22 357 22 355 22C355.667 21.5 356.333 21 357 20.5C358.333 19.5 359.833 19 361.5 19ZM339.5 26C340.667 26 341.833 26 343 26C342.5 26.6667 342 27.3333 341.5 28C340.5 29.3333 340 31.3333 340 34C340 36.6667 340.333 38.3333 341 39C341.333 39.3333 341.667 39.6667 342 40C341.333 39.8333 340.667 39.6667 340 39.5C338.667 39.1667 336.833 39.5 334.5 40.5C333.333 41 332.167 41.5 331 42C331.833 39.3333 332.667 36.6667 333.5 34C335.167 28.6667 337.167 26 339.5 26ZM358 26C363.333 26 367.167 26.6667 369.5 28C371.833 29.3333 373 30.5 373 31.5C373 32.5 371.667 33.8333 369 35.5C366.333 37.1667 362.333 38.1667 357 38.5C351.667 38.8333 348.167 38.5 346.5 37.5C344.833 36.5 344 35.1667 344 33.5C344 31.8333 345 30.1667 347 28.5C349 26.8333 352.667 26 358 26ZM375 26C376.667 26.1667 378.333 26.3333 380 26.5C381.667 26.6667 383.333 26.8333 385 27C384.833 28.1667 384.667 29.3333 384.5 30.5C384.167 32.8333 384.333 34.8333 385 36.5C385.333 37.3333 385.667 38.1667 386 39C384.667 39.3333 383.333 39.6667 382 40C379.333 40.6667 377 42 375 44C373 46 370.5 46.5 367.5 45.5C364.5 44.5 361.333 44.6667 358 46C354.667 47.3333 351.833 47.1667 349.5 45.5C348.333 44.6667 347.167 43.8333 346 43C348.333 43 350.667 43 353 43C357.667 43 361.833 42.5 365.5 41.5C369.167 40.5 372 39.1667 374 37.5C376 35.8333 377 33.8333 377 31.5C377 29.1667 376.667 27.6667 376 27C375.667 26.6667 375.333 26.3333 375 26ZM384.5 43C385.5 43 386.333 45.6667 387 51C387.333 53.6667 387.667 56.3333 388 59C387 58.6667 386 58.3333 385 58C383 57.3333 382.167 56.3333 382.5 55C382.833 53.6667 382.5 51.5 381.5 48.5C381 47 380.5 45.5 380 44C380.5 43.8333 381 43.6667 381.5 43.5C382.5 43.1667 383.5 43 384.5 43ZM338.5 44.5C340 44.6667 341.5 44.8333 343 45C342.167 50.8333 341.333 56.6667 340.5 62.5C339.667 68.3333 338.833 74.1667 338 80C337.167 79.3333 336.333 78.6667 335.5 78C333.833 76.6667 332.167 74.5 330.5 71.5C328.833 68.5 328.5 66.5 329.5 65.5C330.5 64.5 331.167 60.8333 331.5 54.5C331.833 48.1667 332.333 44.8333 333 44.5C333.667 44.1667 335.5 44.1667 338.5 44.5ZM345 47C346.167 47.6667 347.333 48.3333 348.5 49C350.833 50.3333 352 52.5 352 55.5C352 58.5 351.167 60.6667 349.5 62C347.833 63.3333 346.667 67 346 73C345.333 79 344.667 82 344 82C343.333 82 342.5 81.6667 341.5 81C340.5 80.3333 340.833 74.5 342.5 63.5C343.333 58 344.167 52.5 345 47ZM377 47C377.667 47 378.167 48.6667 378.5 52C378.667 53.6667 378.833 55.3333 379 57C377.167 56.8333 375.333 56.6667 373.5 56.5C371.667 56.3333 369.833 56.1667 368 56C368.167 55.1667 368.333 54.3333 368.5 53.5C368.833 51.8333 369.833 50.8333 371.5 50.5C373.167 50.1667 374.333 49.5 375 48.5C375.667 47.5 376.333 47 377 47ZM364 48C364.5 48.1667 365 48.3333 365.5 48.5C366.5 48.8333 366.833 50.1667 366.5 52.5C366.167 54.8333 365.5 56 364.5 56C364 56 363.5 56 363 56C363.167 54.6667 363.333 53.3333 363.5 52C363.667 50.6667 363.833 49.3333 364 48ZM251.5 53C259.833 55.6667 282.833 66.3333 320.5 85C358.167 103.667 382.833 115.167 394.5 119.5C406.167 123.833 413.167 127.333 415.5 130C416.667 131.333 417.833 132.667 419 134C393.833 150.833 368.667 167.667 343.5 184.5C293.167 218.167 258.167 242 238.5 256C218.833 270 205 276 197 274C189 272 179.667 268.5 169 263.5C158.333 258.5 148.833 253.333 140.5 248C132.167 242.667 123.167 237.833 113.5 233.5C103.833 229.167 92.5 223.333 79.5 216C66.5 208.667 55.5 201.833 46.5 195.5C37.5 189.167 31.6667 185.667 29 185C26.3333 184.333 24.8333 183.5 24.5 182.5C24.1667 181.5 24.3333 180.667 25 180C25.6667 179.333 28.6667 177.333 34 174C36.6667 172.333 39.3333 170.667 42 169C41.3333 169.667 40.6667 170.333 40 171C38.6667 172.333 38.1667 174 38.5 176C38.8333 178 46.3333 182.167 61 188.5C75.6667 194.833 92.5 203.833 111.5 215.5C130.5 227.167 146.333 236 159 242C171.667 248 181.833 253.333 189.5 258C197.167 262.667 202.333 265.167 205 265.5C207.667 265.833 209.667 265.167 211 263.5C212.333 261.833 217.167 258.833 225.5 254.5C233.833 250.167 250.5 239.167 275.5 221.5C300.5 203.833 315 194.333 319 193C323 191.667 325.167 190.333 325.5 189C325.833 187.667 318.167 183.667 302.5 177C286.833 170.333 269.833 162 251.5 152C233.167 142 218.333 134.5 207 129.5C195.667 124.5 184.667 118.833 174 112.5C163.333 106.167 157 102.833 155 102.5C154 102.333 153 102.167 152 102C152 102.5 152 103 152 103.5C152 104.5 153.167 105.167 155.5 105.5C157.833 105.833 160 106.833 162 108.5C164 110.167 175.167 116 195.5 126C215.833 136 234.667 145.833 252 155.5C269.333 165.167 284.167 172.667 296.5 178C302.667 180.667 308.833 183.333 315 186C313.5 187.333 312 188.667 310.5 190C307.5 192.667 304.167 194.833 300.5 196.5C296.833 198.167 287.833 203.833 273.5 213.5C259.167 223.167 249.167 229.333 243.5 232C237.833 234.667 230.833 239 222.5 245C214.167 251 209 254.167 207 254.5C205 254.833 187.5 245.667 154.5 227C121.5 208.333 97.6667 195.333 83 188C68.3333 180.667 59.5 176.667 56.5 176C53.5 175.333 51 174.167 49 172.5C48 171.667 47 170.833 46 170C63.1667 159.5 80.3333 149 97.5 138.5C131.833 117.5 149.333 106.5 150 105.5C150.333 105 150.667 104.5 151 104C150 104.333 149 104.667 148 105C146 105.667 143.667 107.167 141 109.5C138.333 111.833 136 113.167 134 113.5C132 113.833 124.833 118 112.5 126C100.167 134 93.5 138 92.5 138C92 138 91.5 138 91 138C92.1667 137.167 93.3333 136.333 94.5 135.5C96.8333 133.833 121.5 119 168.5 91C215.5 63 243.167 50.3333 251.5 53ZM361 49C361.167 50.1667 361.333 51.3333 361.5 52.5C361.833 54.8333 360.667 56.3333 358 57C356.667 57.3333 355.333 57.6667 354 58C354 57 354 56 354 55C354 53 355.167 51.5 357.5 50.5C358.667 50 359.833 49.5 361 49ZM360 59C360.167 59.3333 360.333 59.6667 360.5 60C360.667 60.3333 360.833 60.6667 361 61C360.333 61.1667 359.667 61.3333 359 61.5C357.667 61.8333 356.333 63 355 65C353.667 67 353 69.1667 353 71.5C353 72.6667 353 73.8333 353 75C352.5 74.5 352 74 351.5 73.5C350.5 72.5 350 70.8333 350 68.5C350 66.1667 351.667 64 355 62C356.667 61 358.333 60 360 59ZM326 62C325.833 62.3333 325.667 62.6667 325.5 63C325.333 63.3333 325.167 63.6667 325 64C325.167 63.6667 325.333 63.3333 325.5 63C325.667 62.6667 325.833 62.3333 326 62ZM371.5 63.5C377.833 63.8333 382.333 64.8333 385 66.5C387.667 68.1667 389.167 69.8333 389.5 71.5C389.833 73.1667 388.333 74.8333 385 76.5C381.667 78.1667 377 78.6667 371 78C365 77.3333 361.167 76.3333 359.5 75C357.833 73.6667 357 72.1667 357 70.5C357 68.8333 357.833 67.1667 359.5 65.5C361.167 63.8333 365.167 63.1667 371.5 63.5ZM453 63C457.667 63 460.333 63.5 461 64.5C461.333 65 461.667 65.5 462 66C459.5 65.8333 457 65.6667 454.5 65.5C449.5 65.1667 446 65.3333 444 66C442 66.6667 439.667 68 437 70C434.333 72 433 74 433 76C433 78 434.333 80 437 82C439.667 84 443 85.6667 447 87C449 87.6667 451 88.3333 453 89C450.5 88.5 448 88 445.5 87.5C440.5 86.5 437.167 85 435.5 83C433.833 81 432.167 79.6667 430.5 79C428.833 78.3333 428.333 76.1667 429 72.5C429.667 68.8333 431.833 67 435.5 67C439.167 67 441.833 66.3333 443.5 65C445.167 63.6667 448.333 63 453 63ZM323 64C322.333 65.3333 321.667 66.6667 321 68C319.667 70.6667 319.167 73.1667 319.5 75.5C319.667 76.6667 319.833 77.8333 320 79C318.167 78.1667 316.333 77.3333 314.5 76.5C310.833 74.8333 309 73.6667 309 73C309 72.3333 311.333 70.6667 316 68C318.333 66.6667 320.667 65.3333 323 64ZM398 66C402.333 67.8333 406.667 69.6667 411 71.5C419.667 75.1667 423.833 81 423.5 89C423.167 97 421.5 102.167 418.5 104.5C415.5 106.833 414 110.333 414 115C414 117.333 414 119.667 414 122C411.667 121.167 409.333 120.333 407 119.5C402.333 117.833 400.333 110.833 401 98.5C401.667 86.1667 401.333 77.6667 400 73C399.333 70.6667 398.667 68.3333 398 66ZM392 67C392.333 67 392.667 67 393 67C393.333 67 393.667 67 394 67C394 67.8333 394 68.6667 394 69.5C394 70.3333 394 71.1667 394 72C393.667 71.1667 393.333 70.3333 393 69.5C392.667 68.6667 392.333 67.8333 392 67ZM469 68C469.333 68.1667 469.667 68.3333 470 68.5C470.333 68.6667 470.667 68.8333 471 69C470.667 68.8333 470.333 68.6667 470 68.5C469.667 68.3333 469.333 68.1667 469 68ZM325 69C326.667 71.5 328.333 74 330 76.5C333.333 81.5 336.667 84.3333 340 85C343.333 85.6667 345.167 87 345.5 89C345.667 90 345.833 91 346 92C342.667 90.3333 339.333 88.6667 336 87C329.333 83.6667 325.5 81 324.5 79C323.5 77 323.333 74.8333 324 72.5C324.333 71.3333 324.667 70.1667 325 69ZM453 69.5C459 69.8333 463.333 70.5 466 71.5C468.667 72.5 470.167 73.8333 470.5 75.5C470.833 77.1667 469.167 79 465.5 81C461.833 83 457 83.5 451 82.5C445 81.5 441.167 80.5 439.5 79.5C437.833 78.5 437 77.3333 437 76C437 74.6667 438.167 73.1667 440.5 71.5C442.833 69.8333 447 69.1667 453 69.5ZM472 69C473 69.1667 474 69.3333 475 69.5C476 69.6667 477 69.8333 478 70C477.833 71 477.667 72 477.5 73C477.167 75 477.833 77 479.5 79C480.333 80 481.167 81 482 82C480.333 82.8333 478.667 83.6667 477 84.5C473.667 86.1667 470.5 87.1667 467.5 87.5C466 87.6667 464.5 87.8333 463 88C464.167 87.5 465.333 87 466.5 86.5C468.833 85.5 470.833 84 472.5 82C474.167 80 475.167 78.1667 475.5 76.5C475.833 74.8333 475.333 73.1667 474 71.5C473.333 70.6667 472.667 69.8333 472 69ZM348 74C348.167 76 348.333 78 348.5 80C348.667 82 348.833 84 349 86C348.833 84 348.667 82 348.5 80C348.333 78 348.167 76 348 74ZM396 76C396.167 76.3333 396.333 76.6667 396.5 77C396.667 77.3333 396.833 77.6667 397 78C396.833 77.6667 396.667 77.3333 396.5 77C396.333 76.6667 396.167 76.3333 396 76ZM394 78C394.167 84.1667 394.333 90.3333 394.5 96.5C394.667 102.667 394.833 108.833 395 115C394.667 114.833 394.333 114.667 394 114.5C393.333 114.167 392.833 112.5 392.5 109.5C392.167 106.5 392 101.167 392 93.5C392 89.6667 392 85.8333 392 82C391.667 82 391.333 82 391 82C390.667 82 390.333 82 390 82C390.167 87.1667 390.333 92.3333 390.5 97.5C390.667 102.667 390.833 107.833 391 113C390.5 112.833 390 112.667 389.5 112.5C388.5 112.167 388.167 108.833 388.5 102.5C388.833 96.1667 388.667 91.3333 388 88C387.333 84.6667 388.167 82.1667 390.5 80.5C391.667 79.6667 392.833 78.8333 394 78ZM207 86.5C198.333 91.5 194 94.8333 194 96.5C194 97.3333 194 98.1667 194 99C194.667 99 195.333 99 196 99C197.333 99 200.5 97.6667 205.5 95C210.5 92.3333 216.833 93.1667 224.5 97.5C232.167 101.833 236.667 103.833 238 103.5C239.333 103.167 240 102.5 240 101.5C240 100.5 239.333 99.5 238 98.5C236.667 97.5 232.833 95.6667 226.5 93C223.333 91.6667 220.167 90.3333 217 89C217.667 88.3333 218.333 87.6667 219 87C220.333 85.6667 222 85 224 85C226 85 230 86.6667 236 90C242 93.3333 246 94.6667 248 94C249 93.6667 250 93.3333 251 93C250.5 92.1667 250 91.3333 249.5 90.5C248.5 88.8333 245.167 86.5 239.5 83.5C233.833 80.5 229.167 79 225.5 79C221.833 79 215.667 81.5 207 86.5ZM354 80C354.333 80.1667 354.667 80.3333 355 80.5C355.667 80.8333 355.833 83.5 355.5 88.5C355.167 93.5 354.667 96 354 96C353.667 96 353.333 96 353 96C353.167 93.3333 353.333 90.6667 353.5 88C353.667 85.3333 353.833 82.6667 354 80ZM426 81C426.167 81.5 426.333 82 426.5 82.5C426.667 83 426.833 83.5 427 84C426.833 83.5 426.667 83 426.5 82.5C426.333 82 426.167 81.5 426 81ZM357 82C357.167 84.5 357.333 87 357.5 89.5C357.667 92 357.833 94.5 358 97C357.833 94.5 357.667 92 357.5 89.5C357.333 87 357.167 84.5 357 82ZM359 82C359.833 82.3333 360.667 82.6667 361.5 83C363.167 83.6667 364.167 86.6667 364.5 92C364.667 94.6667 364.833 97.3333 365 100C365 97.1667 365 94.3333 365 91.5C365 88.6667 365 85.8333 365 83C366.167 83.1667 367.333 83.3333 368.5 83.5C370.833 83.8333 372 87.3333 372 94C372 97.3333 372 100.667 372 104C369.833 103 367.667 102 365.5 101C361.167 99 359 95.3333 359 90C359 87.3333 359 84.6667 359 82ZM385 83C385.667 83 386.167 87.6667 386.5 97C386.667 101.667 386.833 106.333 387 111C386.167 110.833 385.333 110.667 384.5 110.5C382.833 110.167 381.833 106 381.5 98C381.333 94 381.167 90 381 86C380.833 89.6667 380.667 93.3333 380.5 97C380.333 100.667 380.167 104.333 380 108C379 107.667 378 107.333 377 107C375 106.333 373.833 104.667 373.5 102C373.167 99.3333 373 95.6667 373 91C373 86.3333 374.833 83.8333 378.5 83.5C382.167 83.1667 384.333 83 385 83ZM430 85C432.833 86.1667 435.667 87.3333 438.5 88.5C444.167 90.8333 451 91.8333 459 91.5C467 91.1667 471.667 90.6667 473 90C473.667 89.6667 474.333 89.3333 475 89C474.833 93.6667 474.667 98.3333 474.5 103C474.167 112.333 474.333 117.167 475 117.5C475.333 117.667 475.667 117.833 476 118C474.333 118.5 472.667 119 471 119.5C469.333 120 467.667 120.5 466 121C466.167 116.667 466.333 112.333 466.5 108C466.833 99.3333 466.5 94.8333 465.5 94.5C465 94.3333 464.5 94.1667 464 94C463.833 98.1667 463.667 102.333 463.5 106.5C463.167 114.833 463.333 119.5 464 120.5C464.333 121 464.667 121.5 465 122C462 122.333 459 122.667 456 123C453 123.333 450 123.667 447 124C447.5 122.167 448 120.333 448.5 118.5C449.5 114.833 450 109.667 450 103C450 99.6667 450 96.3333 450 93C449.667 93 449.333 93 449 93C448.333 93 447.5 96.8333 446.5 104.5C445.5 112.167 445.167 117.333 445.5 120C445.667 121.333 445.833 122.667 446 124C444.5 123.667 443 123.333 441.5 123C440 122.667 438.5 122.333 437 122C437.5 120.667 438 119.333 438.5 118C439 116.667 439.5 115.333 440 114C439.5 114.333 439 114.667 438.5 115C438 115.333 437.5 115.667 437 116C437.167 111.833 437.333 107.667 437.5 103.5C437.833 95.1667 437.5 90.8333 436.5 90.5C436 90.3333 435.5 90.1667 435 90C435 93.5 435 97 435 100.5C435 107.5 434.5 112.333 433.5 115C433 116.333 432.5 117.667 432 119C430.333 117.333 428.667 115.667 427 114C423.667 110.667 423 107.167 425 103.5C427 99.8333 428.333 95.8333 429 91.5C429.333 89.3333 429.667 87.1667 430 85ZM482 86C482.667 86 483.167 90.1667 483.5 98.5C483.833 106.833 483 111.833 481 113.5C480 114.333 479 115.167 478 116C477.833 111.333 477.667 106.667 477.5 102C477.167 92.6667 477.667 87.6667 479 87C480.333 86.3333 481.333 86 482 86ZM348 87C348.167 88 348.333 89 348.5 90C348.667 91 348.833 92 349 93C348.833 92 348.667 91 348.5 90C348.333 89 348.167 88 348 87ZM351 89C351.167 90 351.333 91 351.5 92C351.667 93 351.833 94 352 95C351.833 94 351.667 93 351.5 92C351.333 91 351.167 90 351 89ZM243.5 104C238.5 108 235.833 110.833 235.5 112.5C235.167 114.167 235.667 116 237 118C238.333 120 241.167 121.833 245.5 123.5C249.833 125.167 253.333 126 256 126C258.667 126 261.167 125.667 263.5 125C265.833 124.333 269 122.167 273 118.5C277 114.833 279 112.5 279 111.5C279 110.5 278.5 109.833 277.5 109.5C276.5 109.167 274.5 110.333 271.5 113C268.5 115.667 265.5 117.667 262.5 119C259.5 120.333 255.167 120.167 249.5 118.5C246.667 117.667 243.833 116.833 241 116C241.333 115 241.667 114 242 113C242.667 111 245 108.667 249 106C253 103.333 255 101.5 255 100.5C255 99.5 254.333 98.8333 253 98.5C251.667 98.1667 248.5 100 243.5 104ZM397 100C397.167 102.667 397.333 105.333 397.5 108C397.667 110.667 397.833 113.333 398 116C397.833 113.333 397.667 110.667 397.5 108C397.333 105.333 397.167 102.667 397 100ZM419 109C421.167 111.333 423.333 113.667 425.5 116C429.833 120.667 434.5 123.833 439.5 125.5C444.5 127.167 451.667 127.167 461 125.5C470.333 123.833 476.667 121.833 480 119.5C483.333 117.167 485.333 115.167 486 113.5C486.333 112.667 486.667 111.833 487 111C487.167 112.333 487.333 113.667 487.5 115C487.833 117.667 487 120.5 485 123.5C483 126.5 480.667 128.667 478 130C475.333 131.333 469.833 132.333 461.5 133C453.167 133.667 445.667 133.167 439 131.5C432.333 129.833 427.167 127.833 423.5 125.5C419.833 123.167 417.667 120.833 417 118.5C416.333 116.167 416.5 114 417.5 112C418 111 418.5 110 419 109ZM491 109C496.5 111.5 502 114 507.5 116.5C518.5 121.5 525.167 125 527.5 127C529.833 129 530.833 130.333 530.5 131C530.167 131.667 525.833 134.333 517.5 139C509.167 143.667 501.833 148.333 495.5 153C489.167 157.667 481 162.167 471 166.5C461 170.833 453.667 174.5 449 177.5C444.333 180.5 441.667 182 441 182C440.333 182 439.5 180.167 438.5 176.5C437.5 172.833 436 171 434 171C432 171 423.5 177.833 408.5 191.5C393.5 205.167 383 215.333 377 222C371 228.667 362 237 350 247C338 257 322 272 302 292C282 312 265.5 327 252.5 337C239.5 347 229.5 356 222.5 364C215.5 372 211 376.167 209 376.5C207 376.833 202.667 375.5 196 372.5C189.333 369.5 178.333 363 163 353C147.667 343 131.167 333 113.5 323C104.667 318 95.8333 313 87 308C89 308 91 308 93 308C97 308 101 307.333 105 306C109 304.667 114.667 306.667 122 312C129.333 317.333 139 323.167 151 329.5C163 335.833 173.833 342.333 183.5 349C193.167 355.667 199.5 359.5 202.5 360.5C205.5 361.5 208 361.833 210 361.5C212 361.167 220.333 354.667 235 342C249.667 329.333 267.667 312.667 289 292C310.333 271.333 335.667 248.667 365 224C394.333 199.333 410.667 185.5 414 182.5C417.333 179.5 419 177.5 419 176.5C419 175.5 420.333 174.833 423 174.5C425.667 174.167 428.333 172.667 431 170C433.667 167.333 435.333 164 436 160C436.667 156 436 153 434 151C432 149 430 145.333 428 140C426 134.667 424.5 131.667 423.5 131C423 130.667 422.5 130.333 422 130C426 131.333 430 132.667 434 134C442 136.667 450.833 137.667 460.5 137C470.167 136.333 476.5 135.167 479.5 133.5C482.5 131.833 484.833 130 486.5 128C488.167 126 489.333 122.333 490 117C490.333 114.333 490.667 111.667 491 109ZM283 118.5C283.667 120.167 287.167 122.5 293.5 125.5C296.667 127 299.833 128.5 303 130C296.5 129.833 290 129.667 283.5 129.5C277 129.333 270.5 129.167 264 129C264 129.833 264 130.667 264 131.5C264 133.167 269.333 135.667 280 139C285.333 140.667 290.667 142.333 296 144C296 143.333 296 142.667 296 142C296 140.667 293.833 139 289.5 137C287.333 136 285.167 135 283 134C287.5 134 292 134 296.5 134C305.5 134 310.333 133.667 311 133C311.667 132.333 311.833 131.333 311.5 130C311.167 128.667 307.333 126.167 300 122.5C292.667 118.833 287.833 116.833 285.5 116.5C284.333 116.333 283.167 116.167 282 116C282.333 116.833 282.667 117.667 283 118.5ZM317 134.5C316.667 135 316.333 135.5 316 136C318.5 137.333 321 138.667 323.5 140C328.5 142.667 331 144.333 331 145C331 145.667 326.167 146.167 316.5 146.5C306.833 146.833 302 147.833 302 149.5C302 151.167 306.667 153.833 316 157.5C325.333 161.167 330.333 162.667 331 162C331.667 161.333 331.667 160.5 331 159.5C330.333 158.5 327.667 156.833 323 154.5C320.667 153.333 318.333 152.167 316 151C319.833 150.833 323.667 150.667 327.5 150.5C335.167 150.167 340.5 149.5 343.5 148.5C345 148 346.5 147.5 348 147C347.5 146.333 347 145.667 346.5 145C345.5 143.667 343.167 142.667 339.5 142C335.833 141.333 331.333 139.667 326 137C320.667 134.333 317.667 133.5 317 134.5ZM532 134.5C533.333 134.833 534 141.167 534 153.5C534 165.833 533.667 184 533 208C532.333 232 531.667 244.333 531 245C530.333 245.667 500.5 264.167 441.5 300.5C382.5 336.833 332.167 368.333 290.5 395C248.833 421.667 226.5 435.5 223.5 436.5C222 437 220.5 437.5 219 438C218.833 433.333 218.667 428.667 218.5 424C218.167 414.667 217.167 406.333 215.5 399C213.833 391.667 213.167 386.667 213.5 384C213.833 381.333 214.667 379.667 216 379C217.333 378.333 218.167 377.333 218.5 376C218.833 374.667 222.5 370.333 229.5 363C236.5 355.667 246.667 346.833 260 336.5C273.333 326.167 289.667 311.333 309 292C328.333 272.667 342.5 259.333 351.5 252C360.5 244.667 375.167 231 395.5 211C415.833 191 427.333 180.167 430 178.5C431.333 177.667 432.667 176.833 434 176C434.333 177.167 434.667 178.333 435 179.5C435.667 181.833 437 183.5 439 184.5C441 185.5 443.333 185 446 183C448.667 181 456.167 177.167 468.5 171.5C480.833 165.833 494.167 158.167 508.5 148.5C522.833 138.833 530.667 134.167 532 134.5ZM421.5 138.5C422.5 138.833 423.5 140.5 424.5 143.5C425 145 425.5 146.5 426 148C424.5 148 423 148 421.5 148C418.5 148 416.167 148.833 414.5 150.5C412.833 152.167 411.5 154.333 410.5 157C409.5 159.667 409.5 162.833 410.5 166.5C411 168.333 411.5 170.167 412 172C412.5 171.833 413 171.667 413.5 171.5C414 171.333 414.5 171.167 415 171C415.167 171.5 415.333 172 415.5 172.5C415.833 173.5 399.333 188.167 366 216.5C332.667 244.833 304.5 270.167 281.5 292.5C258.5 314.833 242.333 329.833 233 337.5C223.667 345.167 218.167 349.167 216.5 349.5C214.833 349.833 213.5 350.667 212.5 352C211.5 353.333 210.333 354 209 354C207.667 354 206.667 348.667 206 338C205.333 327.333 205.333 320.667 206 318C206.667 315.333 207 309.833 207 301.5C207 293.167 208.833 286.667 212.5 282C216.167 277.333 251.667 252.167 319 206.5C386.333 160.833 420.5 138.167 421.5 138.5ZM89 139C89 139.333 89 139.667 89 140C89 140.667 88.1667 141.333 86.5 142C85.6667 142.333 84.8333 142.667 84 143C84.8333 142.333 85.6667 141.667 86.5 141C87.3333 140.333 88.1667 139.667 89 139ZM80 144C79.8333 144.333 79.6667 144.667 79.5 145C79.3333 145.333 79.1667 145.667 79 146C79.1667 145.667 79.3333 145.333 79.5 145C79.6667 144.667 79.8333 144.333 80 144ZM75 147C74.8333 147.333 74.6667 147.667 74.5 148C74.3333 148.333 74.1667 148.667 74 149C74.1667 148.667 74.3333 148.333 74.5 148C74.6667 147.667 74.8333 147.333 75 147ZM72 149C71.5 149.5 71 150 70.5 150.5C70 151 69.5 151.5 69 152C69.5 151.5 70 151 70.5 150.5C71 150 71.5 149.5 72 149ZM419 150C418.333 150.833 417.667 151.667 417 152.5C416.333 153.333 415.667 154.167 415 155C415.667 154.167 416.333 153.333 417 152.5C417.667 151.667 418.333 150.833 419 150ZM431 153C433 154.333 434 156.167 434 158.5C434 159.667 434 160.833 434 162C433.333 161.833 432.667 161.667 432 161.5C430.667 161.167 430.167 160.167 430.5 158.5C430.667 157.667 430.833 156.833 431 156C430.5 156 430 156 429.5 156C428.5 156 427.833 156.5 427.5 157.5C427.167 158.5 426.167 159 424.5 159C422.833 159 421.833 159.5 421.5 160.5C421.333 161 421.167 161.5 421 162C421.5 162.167 422 162.333 422.5 162.5C423.5 162.833 424 164.167 424 166.5C424 167.667 424 168.833 424 170C424.5 169.167 425 168.333 425.5 167.5C426.5 165.833 427.667 165.333 429 166C429.667 166.333 430.333 166.667 431 167C429.333 167.833 427.667 168.667 426 169.5C422.667 171.167 420.333 171.167 419 169.5C417.667 167.833 417.167 165.5 417.5 162.5C417.833 159.5 418.5 157.333 419.5 156C420.5 154.667 422.167 153.5 424.5 152.5C426.833 151.5 429 151.667 431 153ZM67 152C66.8333 152.333 66.6667 152.667 66.5 153C66.3333 153.333 66.1667 153.667 66 154C66.1667 153.667 66.3333 153.333 66.5 153C66.6667 152.667 66.8333 152.333 67 152ZM64 154C63.8333 154.333 63.6667 154.667 63.5 155C63.3333 155.333 63.1667 155.667 63 156C63.1667 155.667 63.3333 155.333 63.5 155C63.6667 154.667 63.8333 154.333 64 154ZM61 156C60.8333 156.333 60.6667 156.667 60.5 157C60.3333 157.333 60.1667 157.667 60 158C60.1667 157.667 60.3333 157.333 60.5 157C60.6667 156.667 60.8333 156.333 61 156ZM413 158C413.167 158.667 413.333 159.333 413.5 160C413.667 160.667 413.833 161.333 414 162C413.833 161.333 413.667 160.667 413.5 160C413.333 159.333 413.167 158.667 413 158ZM413 165C413.167 165.333 413.333 165.667 413.5 166C413.667 166.333 413.833 166.667 414 167C413.833 166.667 413.667 166.333 413.5 166C413.333 165.667 413.167 165.333 413 165ZM76 188.5C98 199.5 112.5 207.333 119.5 212C126.5 216.667 139 223.667 157 233C175 242.333 187.667 249.333 195 254C198.667 256.333 202.333 258.667 206 261C205 260.833 204 260.667 203 260.5C201 260.167 196.833 258 190.5 254C184.167 250 176.667 246.167 168 242.5C159.333 238.833 145.5 231.167 126.5 219.5C107.5 207.833 88.3333 197.667 69 189C59.3333 184.667 49.6667 180.333 40 176C40.5 175.333 41 174.667 41.5 174C42.5 172.667 54 177.5 76 188.5ZM320 187.5C320.667 187.667 321.333 187.833 322 188C321.833 188.333 321.667 188.667 321.5 189C321.167 189.667 319.5 190.5 316.5 191.5C315 192 313.5 192.5 312 193C313 192 314 191 315 190C317 188 318.667 187.167 320 187.5ZM23 188C31.8333 193.333 40.6667 198.667 49.5 204C67.1667 214.667 84.5 224.167 101.5 232.5C118.5 240.833 132.333 248.333 143 255C153.667 261.667 165.5 267.667 178.5 273C191.5 278.333 198.667 281.833 200 283.5C201.333 285.167 202.167 290.833 202.5 300.5C202.833 310.167 202.667 319.333 202 328C201.333 336.667 201.333 343.167 202 347.5C202.333 349.667 202.667 351.833 203 354C193.833 348.5 184.667 343 175.5 337.5C157.167 326.5 145 318.667 139 314C133 309.333 127.833 306 123.5 304C119.167 302 117.667 298.333 119 293C120.333 287.667 120.833 283.5 120.5 280.5C120.167 277.5 119.333 274.333 118 271C116.667 267.667 114.333 264.333 111 261C107.667 257.667 104 255.667 100 255C96 254.333 91.1667 255.5 85.5 258.5C79.8333 261.5 75.6667 264.5 73 267.5C70.3333 270.5 61.5 267.167 46.5 257.5C31.5 247.833 23.8333 233.833 23.5 215.5C23.3333 206.333 23.1667 197.167 23 188ZM491.5 196C491.667 196.333 491.833 196.667 492 197C491.833 196.667 491.667 196.333 491.5 196C491.333 195.667 491.167 195.333 491 195C491.167 195.333 491.333 195.667 491.5 196ZM304 197C303.833 197.333 303.667 197.667 303.5 198C303.333 198.333 303.167 198.667 303 199C303.167 198.667 303.333 198.333 303.5 198C303.667 197.667 303.833 197.333 304 197ZM301 199C300.833 199.333 300.667 199.667 300.5 200C300.333 200.333 300.167 200.667 300 201C300.167 200.667 300.333 200.333 300.5 200C300.667 199.667 300.833 199.333 301 199ZM298 201C297.833 201.5 297.667 202 297.5 202.5C297.167 203.5 289.333 208.833 274 218.5C258.667 228.167 248.333 235.167 243 239.5C237.667 243.833 231 248.333 223 253C215 257.667 210.667 259.833 210 259.5C209.333 259.167 209 258.667 209 258C209 257.333 213.333 254 222 248C230.667 242 238.167 237.5 244.5 234.5C250.833 231.5 261.333 225.167 276 215.5C283.333 210.667 290.667 205.833 298 201ZM414.5 212C411.5 214 408.333 218.667 405 226C401.667 233.333 400.333 239.833 401 245.5C401.667 251.167 403.5 256.167 406.5 260.5C409.5 264.833 414.833 265.5 422.5 262.5C430.167 259.5 435.5 254.667 438.5 248C441.5 241.333 443 237 443 235C443 234 443 233 443 232C442.5 232 442 232 441.5 232C440.5 232 438.667 235.5 436 242.5C433.333 249.5 430.5 254 427.5 256C424.5 258 421.667 259.167 419 259.5C416.333 259.833 413.667 258.167 411 254.5C408.333 250.833 408.333 246.5 411 241.5C413.667 236.5 415.167 232.667 415.5 230C415.833 227.333 417.5 224.833 420.5 222.5C423.5 220.167 425.667 219 427 219C428.333 219 429.833 219.833 431.5 221.5C432.333 222.333 433.167 223.167 434 224C433 224.667 432 225.333 431 226C429 227.333 427.5 228 426.5 228C426 228 425.5 228 425 228C425.167 227.5 425.333 227 425.5 226.5C425.667 226 425.833 225.5 426 225C425.5 225 425 225 424.5 225C423.5 225 422.167 226 420.5 228C418.833 230 417.167 233 415.5 237C413.833 241 413.5 245.167 414.5 249.5C415.5 253.833 416.5 256 417.5 256C418 256 418.5 256 419 256C419 255.5 419 255 419 254.5C419 254 419 253.5 419 253C419.333 253.333 419.667 253.667 420 254C420.667 254.667 422 254.833 424 254.5C426 254.167 428.5 251.667 431.5 247C434.5 242.333 436.167 238 436.5 234C436.667 232 436.833 230 437 228C437.333 228.333 437.667 228.667 438 229C438.667 229.667 439.833 229.833 441.5 229.5C443.167 229.167 443.833 227.667 443.5 225C443.167 222.333 441.667 219.333 439 216C436.333 212.667 432.333 210.667 427 210C421.667 209.333 417.5 210 414.5 212ZM424 214C424.667 214 425.333 214 426 214C426 214.333 426 214.667 426 215C426 215.667 423.833 217.167 419.5 219.5C415.167 221.833 412.5 225 411.5 229C410.5 233 409 236.5 407 239.5C406 241 405 242.5 404 244C404.167 242.5 404.333 241 404.5 239.5C404.833 236.5 406 232.833 408 228.5C410 224.167 412.833 220.667 416.5 218C420.167 215.333 422.667 214 424 214ZM430 214C430.833 214.667 431.667 215.333 432.5 216C433.333 216.667 434.167 217.333 435 218C434.167 217.333 433.333 216.667 432.5 216C431.667 215.333 430.833 214.667 430 214ZM424 228C423.167 229.5 422.333 231 421.5 232.5C420.667 234 419.833 235.5 419 237C419.833 235.5 420.667 234 421.5 232.5C422.333 231 423.167 229.5 424 228ZM431.5 228.5C432.5 228.833 433 230.167 433 232.5C433 234.833 432 238 430 242C428 246 426.333 248.333 425 249C424.333 249.333 423.667 249.667 423 250C423 248 423 246 423 244C423 240 424.167 236.333 426.5 233C428.833 229.667 430.5 228.167 431.5 228.5ZM418 238C418.167 238.333 418.333 238.667 418.5 239C418.667 239.333 418.833 239.667 419 240C418.833 239.667 418.667 239.333 418.5 239C418.333 238.667 418.167 238.333 418 238ZM417 241C417.167 241.667 417.333 242.333 417.5 243C417.667 243.667 417.833 244.333 418 245C417.833 244.333 417.667 243.667 417.5 243C417.333 242.333 417.167 241.667 417 241ZM99.5 260C101.833 260.667 104.167 262.167 106.5 264.5C108.833 266.833 110.667 269.333 112 272C113.333 274.667 113.833 278.667 113.5 284C113.167 289.333 112 293.5 110 296.5C109 298 108 299.5 107 301C107 300.5 107 300 107 299.5C107 299 107 298.5 107 298C106.5 298 106 298 105.5 298C105 298 104.5 298 104 298C104 297.667 104 297.333 104 297C104 296.333 104.833 295.833 106.5 295.5C107.333 295.333 108.167 295.167 109 295C108.167 294.833 107.333 294.667 106.5 294.5C105.667 294.333 104.833 294.167 104 294C104.333 293.5 104.667 293 105 292.5C105.333 292 105.667 291.5 106 291C105.667 291 105.333 291 105 291C104.333 291 103.833 290.333 103.5 289C103.167 287.667 104.167 286.667 106.5 286C107.667 285.667 108.833 285.333 110 285C108.833 285.167 107.667 285.333 106.5 285.5C104.167 285.833 102.833 285.167 102.5 283.5C102.167 281.833 102.833 280.667 104.5 280C105.333 279.667 106.167 279.333 107 279C106.167 279.167 105.333 279.333 104.5 279.5C102.833 279.833 101.833 279.333 101.5 278C101.167 276.667 102.167 275.5 104.5 274.5C105.667 274 106.833 273.5 108 273C106.5 273.333 105 273.667 103.5 274C100.5 274.667 98.8333 274.333 98.5 273C98.1667 271.667 98.5 270.5 99.5 269.5C100 269 100.5 268.5 101 268C100.167 268.333 99.3333 268.667 98.5 269C96.8333 269.667 95.8333 269.667 95.5 269C95.1667 268.333 96.1667 267.333 98.5 266C99.6667 265.333 100.833 264.667 102 264C100.5 264.5 99 265 97.5 265.5C96 266 94.5 266.5 93 267C93.6667 266.167 94.3333 265.333 95 264.5C95.6667 263.667 96.3333 262.833 97 262C95.6667 262.333 94.3333 262.667 93 263C91.6667 263.333 90.3333 263.667 89 264C90.1667 263.167 91.3333 262.333 92.5 261.5C94.8333 259.833 97.1667 259.333 99.5 260ZM47 266.5C49 266.833 53.3333 269 60 273C66.6667 277 70.1667 281 70.5 285C70.8333 289 72.6667 293.167 76 297.5C77.6667 299.667 79.3333 301.833 81 304C73.1667 299.667 65.3333 295.333 57.5 291C41.8333 282.333 34 277.5 34 276.5C34 275.5 35.6667 273.5 39 270.5C42.3333 267.5 45 266.167 47 266.5ZM86 270.5C90 271.5 93 273.667 95 277C97 280.333 98.1667 284.333 98.5 289C98.8333 293.667 98.5 297 97.5 299C96.5 301 94.8333 302.167 92.5 302.5C90.1667 302.833 88.3333 302.667 87 302C85.6667 301.333 83.6667 299.333 81 296C78.3333 292.667 76.6667 288.333 76 283C75.3333 277.667 75.8333 274 77.5 272C79.1667 270 82 269.5 86 270.5ZM108 278.5C108.333 278.667 108.667 278.833 109 279C108.667 278.833 108.333 278.667 108 278.5C107.667 278.333 107.333 278.167 107 278C107.333 278.167 107.667 278.333 108 278.5ZM33 282C35.8333 284 38.6667 286 41.5 288C47.1667 292 55.5 296.667 66.5 302C77.5 307.333 88.3333 313.167 99 319.5C109.667 325.833 125.667 335.833 147 349.5C168.333 363.167 183.5 372 192.5 376C201.5 380 207 386 209 394C211 402 212.333 411.833 213 423.5C213.333 429.333 213.667 435.167 214 441C211.5 440 209 439 206.5 438C201.5 436 186.333 427 161 411C135.667 395 109 379.167 81 363.5C53 347.833 38.3333 339.333 37 338C35.6667 336.667 34.6667 327 34 309C33.6667 300 33.3333 291 33 282ZM1633 327C1633 338 1633 349 1633 360C1631.33 358.167 1629.67 356.333 1628 354.5C1624.67 350.833 1621.17 348 1617.5 346C1613.83 344 1607.67 342.667 1599 342C1590.33 341.333 1582.67 342.333 1576 345C1569.33 347.667 1564.5 350.5 1561.5 353.5C1558.5 356.5 1555.67 360.5 1553 365.5C1550.33 370.5 1548.5 374.833 1547.5 378.5C1546.5 382.167 1546 387.667 1546 395C1546 402.333 1546.5 408 1547.5 412C1548.5 416 1550.5 420.667 1553.5 426C1556.5 431.333 1559 435 1561 437C1563 439 1566.5 441.333 1571.5 444C1576.5 446.667 1582.67 448.333 1590 449C1597.33 449.667 1603.17 449.5 1607.5 448.5C1611.83 447.5 1615.5 446.167 1618.5 444.5C1621.5 442.833 1624.5 440.5 1627.5 437.5C1630.5 434.5 1632.17 432.333 1632.5 431C1632.67 430.333 1632.83 429.667 1633 429C1633.17 432 1633.33 435 1633.5 438C1633.83 444 1636.33 447 1641 447C1643.33 447 1645.67 447 1648 447C1648 421.5 1648 396 1648 370.5C1648 345 1648 319.5 1648 294C1645.5 294 1643 294 1640.5 294C1638 294 1635.5 294 1633 294C1633 305 1633 316 1633 327ZM1659 299C1657 300.333 1655.67 302.5 1655 305.5C1654.33 308.5 1654.83 311.167 1656.5 313.5C1658.17 315.833 1660.67 317.167 1664 317.5C1667.33 317.833 1670 317.167 1672 315.5C1674 313.833 1675.17 311.833 1675.5 309.5C1675.83 307.167 1675.33 304.833 1674 302.5C1672.67 300.167 1670.33 298.667 1667 298C1663.67 297.333 1661 297.667 1659 299ZM460 374.5C460 398.667 460 422.833 460 447C462.667 447 465.333 447 468 447C470.667 447 473.333 447 476 447C476 439.833 476 432.667 476 425.5C476 411.167 481 399 491 389C496 384 501 379 506 374C515.5 386.167 525 398.333 534.5 410.5C553.5 434.833 566.167 447 572.5 447C575.667 447 578.833 447 582 447C571.333 433.167 560.667 419.333 550 405.5C528.667 377.833 528 353.667 548 333C558 322.667 568 312.333 578 302C574.667 302 571.333 302 568 302C561.333 302 544.5 315.667 517.5 343C504 356.667 490.5 370.333 477 384C476.833 370.333 476.667 356.667 476.5 343C476.333 329.333 476.167 315.667 476 302C473.333 302 470.667 302 468 302C465.333 302 462.667 302 460 302C460 326.167 460 350.333 460 374.5ZM981 374.5C981 398.667 981 422.833 981 447C983.667 447 986.333 447 989 447C991.667 447 994.333 447 997 447C997 436 997 425 997 414C997 403 997 392 997 381C1008.83 381 1020.67 381 1032.5 381C1056.17 381 1068.17 387.667 1068.5 401C1068.83 414.333 1069.67 422.833 1071 426.5C1072.33 430.167 1074.17 433.5 1076.5 436.5C1078.83 439.5 1082.67 442.333 1088 445C1093.33 447.667 1098.67 449.167 1104 449.5C1109.33 449.833 1114.83 449.167 1120.5 447.5C1126.17 445.833 1130.83 443.333 1134.5 440C1136.33 438.333 1138.17 436.667 1140 435C1140 437 1140 439 1140 441C1140 443 1140 445 1140 447C1142.5 447 1145 447 1147.5 447C1150 447 1152.5 447 1155 447C1155 429.667 1155 412.333 1155 395C1155 377.667 1155 360.333 1155 343C1152.5 343 1150 343 1147.5 343C1145 343 1142.5 343 1140 343C1140 354.167 1140 365.333 1140 376.5C1140 398.833 1139.17 412.5 1137.5 417.5C1135.83 422.5 1132.83 426.667 1128.5 430C1124.17 433.333 1118.67 435.167 1112 435.5C1105.33 435.833 1100.67 435.5 1098 434.5C1095.33 433.5 1092.5 431 1089.5 427C1086.5 423 1084.67 418.667 1084 414C1083.33 409.333 1083 396.333 1083 375C1083 364.333 1083 353.667 1083 343C1080.5 343 1078 343 1075.5 343C1073 343 1070.5 343 1068 343C1068 346.833 1068 350.667 1068 354.5C1068 358.333 1068 362.167 1068 366C1056.17 366 1044.33 366 1032.5 366C1020.67 366 1008.83 366 997 366C997 357.833 997 349.667 997 341.5C997 333.333 997 325.167 997 317C1009.83 317 1022.67 317 1035.5 317C1048.33 317 1061.17 317 1074 317C1074 314.5 1074 312 1074 309.5C1074 307 1074 304.5 1074 302C1058.5 302 1043 302 1027.5 302C1012 302 996.5 302 981 302C981 326.167 981 350.333 981 374.5ZM1361.5 374.5C1351.67 398.667 1341.83 422.833 1332 447C1334.83 446.833 1337.67 446.667 1340.5 446.5C1346.17 446.167 1351 440.667 1355 430C1359 419.333 1373.67 414 1399 414C1424.33 414 1439.17 419.5 1443.5 430.5C1447.83 441.5 1452.83 447 1458.5 447C1461.33 447 1464.17 447 1467 447C1466.33 445 1465.67 443 1465 441C1464.33 439 1463.67 437 1463 435C1464.5 436.5 1466 438 1467.5 439.5C1470.5 442.5 1474 444.833 1478 446.5C1482 448.167 1486.67 449.167 1492 449.5C1497.33 449.833 1501.67 449.667 1505 449C1508.33 448.333 1511.67 447.167 1515 445.5C1518.33 443.833 1521.17 441.667 1523.5 439C1524.67 437.667 1525.83 436.333 1527 435C1527.17 437 1527.33 439 1527.5 441C1527.83 445 1530.5 447 1535.5 447C1538 447 1540.5 447 1543 447C1543 429.667 1543 412.333 1543 395C1543 377.667 1543 360.333 1543 343C1540.5 343 1538 343 1535.5 343C1533 343 1530.5 343 1528 343C1528 354 1528 365 1528 376C1528 398 1527.17 411.667 1525.5 417C1523.83 422.333 1520.83 426.667 1516.5 430C1512.17 433.333 1506 435 1498 435C1490 435 1484.5 433.833 1481.5 431.5C1478.5 429.167 1476.17 426.167 1474.5 422.5C1472.83 418.833 1471.83 404.667 1471.5 380C1471.33 367.667 1471.17 355.333 1471 343C1468.5 343 1466 343 1463.5 343C1461 343 1458.5 343 1456 343C1456.17 356.333 1456.33 369.667 1456.5 383C1456.67 396.333 1456.83 409.667 1457 423C1448.83 402.833 1440.67 382.667 1432.5 362.5C1416.17 322.167 1405.17 302 1399.5 302C1393.83 302 1381.17 326.167 1361.5 374.5ZM914 328C914 337.333 910.667 342.167 904 342.5C897.333 342.833 893.833 343.5 893.5 344.5C893.167 345.5 892 346.333 890 347C888 347.667 885.667 349.5 883 352.5C881.667 354 880.333 355.5 879 357C878.833 354.667 878.667 352.333 878.5 350C878.167 345.333 875.5 343 870.5 343C868 343 865.5 343 863 343C863 360.333 863 377.667 863 395C863 412.333 863 429.667 863 447C865.5 447 868 447 870.5 447C875.5 447 878.167 446.667 878.5 446C878.833 445.333 878.833 435.5 878.5 416.5C878.167 397.5 878.833 384.833 880.5 378.5C882.167 372.167 884.333 367.667 887 365C889.667 362.333 894 360.167 900 358.5C906 356.833 909.833 356.167 911.5 356.5C913.167 356.833 914.167 369.5 914.5 394.5C914.833 419.5 915.5 433 916.5 435C917.5 437 919.667 439.333 923 442C926.333 444.667 929.5 446.333 932.5 447C935.5 447.667 939.5 447.833 944.5 447.5C949.5 447.167 952 444.667 952 440C952 437.667 952 435.333 952 433C949.167 433 946.333 433 943.5 433C937.833 433 934 431.667 932 429C930 426.333 929 413.5 929 390.5C929 379 929 367.5 929 356C932.833 356 936.667 356 940.5 356C948.167 356 952.167 354 952.5 350C952.667 348 952.833 346 953 344C949 343.833 945 343.667 941 343.5C933 343.167 929 338.167 929 328.5C929 323.667 929 318.833 929 314C926.5 314 924 314 921.5 314C919 314 916.5 314 914 314C914 318.667 914 323.333 914 328ZM1399 322C1404.17 334.833 1409.33 347.667 1414.5 360.5C1419.67 373.333 1424.83 386.167 1430 399C1419.67 399 1409.33 399 1399 399C1388.67 399 1378.33 399 1368 399C1373.17 386.167 1378.33 373.333 1383.5 360.5C1388.67 347.667 1393.83 334.833 1399 322ZM702.5 344C697.5 346 693.5 348.667 690.5 352C689 353.667 687.5 355.333 686 357C685.833 354.667 685.667 352.333 685.5 350C685.167 345.333 682.5 343 677.5 343C675 343 672.5 343 670 343C670 360.333 670 377.667 670 395C670 412.333 670 429.667 670 447C672.667 446.833 675.333 446.667 678 446.5C683.333 446.167 686.167 433.833 686.5 409.5C686.833 385.167 688.5 370.833 691.5 366.5C694.5 362.167 698.5 359 703.5 357C708.5 355 714 354.333 720 355C726 355.667 730.833 357.667 734.5 361C738.167 364.333 740.5 367.667 741.5 371C742.5 374.333 743 387.833 743 411.5C743 423.333 743 435.167 743 447C745.5 447 748 447 750.5 447C753 447 755.5 447 758 447C758 434.5 758 422 758 409.5C758 384.5 757.667 370.667 757 368C756.333 365.333 753.833 361.167 749.5 355.5C745.167 349.833 740.5 346 735.5 344C730.5 342 725 341 719 341C713 341 707.5 342 702.5 344ZM791 345.5C783.667 348.5 777.833 352.5 773.5 357.5C769.167 362.5 765.833 368.333 763.5 375C761.167 381.667 760.167 389.333 760.5 398C760.833 406.667 762.333 414 765 420C767.667 426 771.667 431.5 777 436.5C782.333 441.5 788.333 445 795 447C801.667 449 808.667 449.667 816 449C823.333 448.333 828.833 447.167 832.5 445.5C836.167 443.833 839.833 441.5 843.5 438.5C847.167 435.5 850.333 432 853 428C855.667 424 857.333 420.667 858 418C858.333 416.667 858.667 415.333 859 414C856.333 414 853.667 414 851 414C845.667 414 842.167 415.833 840.5 419.5C838.833 423.167 836.833 426 834.5 428C832.167 430 829.5 431.667 826.5 433C823.5 434.333 819.333 435.167 814 435.5C808.667 435.833 804.5 435.667 801.5 435C798.5 434.333 795 432.667 791 430C787 427.333 783.833 424.167 781.5 420.5C779.167 416.833 777.5 412.5 776.5 407.5C776 405 775.5 402.5 775 400C789.333 400 803.667 400 818 400C832.333 400 846.667 400 861 400C860.833 396.667 860.667 393.333 860.5 390C860.167 383.333 859.167 377.667 857.5 373C855.833 368.333 852.5 363.167 847.5 357.5C842.5 351.833 837.5 347.833 832.5 345.5C827.5 343.167 821.167 341.833 813.5 341.5C805.833 341.167 798.333 342.5 791 345.5ZM1708.5 344.5C1702.17 346.833 1696.33 350.667 1691 356C1685.67 361.333 1681.67 367.5 1679 374.5C1676.33 381.5 1675 388.5 1675 395.5C1675 402.5 1676.5 409.667 1679.5 417C1682.5 424.333 1686.67 430.5 1692 435.5C1697.33 440.5 1702.5 444 1707.5 446C1712.5 448 1719.17 449 1727.5 449C1735.83 449 1743.33 447.5 1750 444.5C1756.67 441.5 1762.33 437.333 1767 432C1771.67 426.667 1775.17 420.333 1777.5 413C1779.83 405.667 1780.83 398.833 1780.5 392.5C1780.17 386.167 1778.83 380 1776.5 374C1774.17 368 1771.17 362.833 1767.5 358.5C1763.83 354.167 1758.67 350.333 1752 347C1745.33 343.667 1738 341.833 1730 341.5C1722 341.167 1714.83 342.167 1708.5 344.5ZM574 377.5C574 400.5 574.333 414.167 575 418.5C575.667 422.833 577.167 427.167 579.5 431.5C581.833 435.833 585.167 439.5 589.5 442.5C593.833 445.5 599.667 447.5 607 448.5C614.333 449.5 620.5 449.333 625.5 448C630.5 446.667 635.167 444.167 639.5 440.5C641.667 438.667 643.833 436.833 646 435C646.167 437 646.333 439 646.5 441C646.833 445 649.333 447 654 447C656.333 447 658.667 447 661 447C661 429.667 661 412.333 661 395C661 377.667 661 360.333 661 343C658.5 343 656 343 653.5 343C651 343 648.5 343 646 343C645.833 355 645.667 367 645.5 379C645.167 403 644.333 416.667 643 420C641.667 423.333 639.5 426.333 636.5 429C633.5 431.667 630.667 433.5 628 434.5C625.333 435.5 620.667 435.833 614 435.5C607.333 435.167 602.333 433.667 599 431C595.667 428.333 593.167 423.667 591.5 417C589.833 410.333 589 396.333 589 375C589 364.333 589 353.667 589 343C586.5 343 584 343 581.5 343C579 343 576.5 343 574 343C574 354.5 574 366 574 377.5ZM1159 350C1159 352.333 1159 354.667 1159 357C1169.83 357.167 1180.67 357.333 1191.5 357.5C1202.33 357.667 1213.17 357.833 1224 358C1213 370.667 1202 383.333 1191 396C1169 421.333 1158 436.167 1158 440.5C1158 442.667 1158 444.833 1158 447C1185.33 447 1212.67 447 1240 447C1267.33 447 1294.67 447 1322 447C1322 444.833 1322 442.667 1322 440.5C1322 438.333 1322 436.167 1322 434C1310.83 434 1299.67 434 1288.5 434C1277.33 434 1266.17 434 1255 434C1265.67 421.5 1276.33 409 1287 396.5C1308.33 371.5 1319.33 358.5 1320 357.5C1320.67 356.5 1321 353.833 1321 349.5C1321 347.333 1321 345.167 1321 343C1294 343 1267 343 1240 343C1213 343 1186 343 1159 343C1159 345.333 1159 347.667 1159 350ZM1657 395C1657 412.333 1657 429.667 1657 447C1659.5 447 1662 447 1664.5 447C1667 447 1669.5 447 1672 447C1672.17 429.833 1672.33 412.667 1672.5 395.5C1672.83 361.167 1670.33 343.833 1665 343.5C1662.33 343.333 1659.67 343.167 1657 343C1657 360.333 1657 377.667 1657 395ZM818 355.5C823.333 356.5 827.333 357.833 830 359.5C832.667 361.167 835.5 364 838.5 368C841.5 372 843.5 376.167 844.5 380.5C845 382.667 845.5 384.833 846 387C834.167 387 822.333 387 810.5 387C798.667 387 786.833 387 775 387C776 384.167 777 381.333 778 378.5C780 372.833 782.333 368.5 785 365.5C787.667 362.5 791.167 360 795.5 358C799.833 356 803.333 354.833 806 354.5C808.667 354.167 812.667 354.5 818 355.5ZM1604.5 355.5C1610.17 356.5 1615.17 358.833 1619.5 362.5C1623.83 366.167 1627 370 1629 374C1631 378 1632.33 382.333 1633 387C1633.67 391.667 1633.67 396.667 1633 402C1632.33 407.333 1630.83 412.333 1628.5 417C1626.17 421.667 1623.17 425.5 1619.5 428.5C1615.83 431.5 1612.33 433.5 1609 434.5C1605.67 435.5 1601.83 436 1597.5 436C1593.17 436 1588.33 434.833 1583 432.5C1577.67 430.167 1573.5 427.167 1570.5 423.5C1567.5 419.833 1565.17 415.333 1563.5 410C1561.83 404.667 1561.17 398.833 1561.5 392.5C1561.83 386.167 1563 380.667 1565 376C1567 371.333 1569.5 367.5 1572.5 364.5C1575.5 361.5 1580.17 359 1586.5 357C1592.83 355 1598.83 354.5 1604.5 355.5ZM1733.5 355C1737.83 355.667 1741.67 356.833 1745 358.5C1748.33 360.167 1751.67 362.833 1755 366.5C1758.33 370.167 1760.83 374.333 1762.5 379C1764.17 383.667 1765 389.167 1765 395.5C1765 401.833 1764 407.5 1762 412.5C1760 417.5 1756.83 422 1752.5 426C1748.17 430 1744 432.667 1740 434C1736 435.333 1731.83 436 1727.5 436C1723.17 436 1718.5 435 1713.5 433C1708.5 431 1704.17 428 1700.5 424C1696.83 420 1694.17 415.333 1692.5 410C1690.83 404.667 1690.33 398.333 1691 391C1691.67 383.667 1693.17 377.833 1695.5 373.5C1697.83 369.167 1701.17 365.333 1705.5 362C1709.83 358.667 1714.5 356.5 1719.5 355.5C1724.5 354.5 1729.17 354.333 1733.5 355ZM1271.5 357C1281.33 357 1291.17 357 1301 357C1300.33 358 1299.67 359 1299 360C1297.67 362 1286.83 374.833 1266.5 398.5C1246.17 422.167 1226.33 434 1207 434C1197.33 434 1187.67 434 1178 434C1188.67 421.167 1199.33 408.333 1210 395.5C1231.33 369.833 1251.83 357 1271.5 357Z" fill="#000000" fill-rule="nonzero" opacity="1" stroke="none" vectornator:layerName="Kurve 1"/>
</g>
</svg>
