<?xml version="1.0" encoding="UTF-8" standalone="no"?>
<!DOCTYPE svg PUBLIC "-//W3C//DTD SVG 1.1//EN" "http://www.w3.org/Graphics/SVG/1.1/DTD/svg11.dtd">
<!-- Created with Vectornator (http://vectornator.io/) -->
<svg height="100%" stroke-miterlimit="10" style="fill-rule:nonzero;clip-rule:evenodd;stroke-linecap:round;stroke-linejoin:round;" version="1.1" viewBox="0 0 2048 2048" width="100%" xml:space="preserve" xmlns="http://www.w3.org/2000/svg" xmlns:vectornator="http://vectornator.io" xmlns:xlink="http://www.w3.org/1999/xlink">
<defs/>
<g id="Ebene-1" vectornator:layerName="Ebene 1">
<path d="M1271.3 357.888C1259.35 364.373 1248.26 367.616 1238.02 367.616C1227.78 367.616 1220.27 369.323 1215.49 372.736C1210.71 376.149 1207.81 380.416 1206.78 385.536C1205.76 390.656 1203.03 396.459 1198.59 402.944C1194.15 409.429 1191.94 414.72 1191.94 418.816C1191.94 422.912 1192.79 428.544 1194.5 435.712C1196.2 442.88 1196.71 453.12 1196.03 466.432C1195.35 479.744 1194.84 487.083 1194.5 488.448C1194.15 489.813 1190.91 493.056 1184.77 498.176C1178.62 503.296 1174.7 507.563 1172.99 510.976C1171.29 514.389 1170.09 519.168 1169.41 525.312C1168.73 531.456 1169.07 536.576 1170.43 540.672C1171.11 542.72 1171.8 544.768 1172.48 546.816C1165.99 543.232 1159.51 539.648 1153.02 536.064C1146.54 532.48 1140.05 528.896 1133.57 525.312C1143.13 519.68 1152.68 514.048 1162.24 508.416C1181.35 497.152 1191.08 490.325 1191.42 487.936C1191.77 485.547 1191.42 483.84 1190.4 482.816C1189.38 481.792 1186.65 481.963 1182.21 483.328C1177.77 484.693 1169.41 488.96 1157.12 496.128C1144.83 503.296 1136.13 508.928 1131.01 513.024C1125.89 517.12 1122.65 519.168 1121.28 519.168C1119.91 519.168 1110.02 514.901 1091.58 506.368C1073.15 497.835 1058.13 491.349 1046.53 486.912C1034.92 482.475 1023.66 477.184 1012.74 471.04C1001.81 464.896 985.088 457.899 962.56 450.048C940.032 442.197 925.525 438.443 919.04 438.784C912.555 439.125 904.192 441.856 893.952 446.976C883.712 452.096 865.792 463.019 840.192 479.744C814.592 496.469 780.629 516.949 738.304 541.184C695.979 565.419 666.453 582.997 649.728 593.92C633.003 604.843 602.795 623.275 559.104 649.216C515.413 675.157 485.717 693.419 470.016 704C454.315 714.581 434.005 727.211 409.088 741.888C384.171 756.565 362.325 770.56 343.552 783.872C324.779 797.184 309.931 806.741 299.008 812.544C288.085 818.347 278.016 824.661 268.8 831.488C259.584 838.315 253.781 841.899 251.392 842.24C249.003 842.581 245.419 844.971 240.64 849.408C235.861 853.845 232.107 860.672 229.376 869.888C226.645 879.104 225.621 887.979 226.304 896.512C226.987 905.045 227.328 933.717 227.328 982.528C227.328 1031.34 229.035 1058.13 232.448 1062.91C235.861 1067.69 239.104 1070.76 242.176 1072.13C245.248 1073.49 248.32 1075.54 251.392 1078.27C254.464 1081 264.533 1087.83 281.6 1098.75C290.133 1104.21 298.667 1109.67 307.2 1115.14C305.152 1116.5 303.104 1117.87 301.056 1119.23C296.96 1121.96 290.475 1127.59 281.6 1136.13C272.725 1144.66 267.605 1150.29 266.24 1153.02C264.875 1155.75 264.021 1158.66 263.68 1161.73C263.339 1164.8 263.68 1184.43 264.704 1220.61C265.728 1256.79 266.923 1284.78 268.288 1304.58C269.653 1324.37 270.677 1335.64 271.36 1338.37C272.043 1341.1 274.261 1345.54 278.016 1351.68C281.771 1357.82 287.744 1362.94 295.936 1367.04C304.128 1371.14 315.563 1377.96 330.24 1387.52C344.917 1397.08 359.083 1405.44 372.736 1412.61C386.389 1419.78 403.627 1430.19 424.448 1443.84C445.269 1457.49 466.261 1469.78 487.424 1480.7C508.587 1491.63 528.213 1502.89 546.304 1514.5C564.395 1526.1 589.824 1541.46 622.592 1560.58C655.36 1579.69 680.96 1595.56 699.392 1608.19C717.824 1620.82 734.549 1631.57 749.568 1640.45C764.587 1649.32 779.605 1657.86 794.624 1666.05C809.643 1674.24 820.224 1679.53 826.368 1681.92C832.512 1684.31 837.632 1685.85 841.728 1686.53C845.824 1687.21 848.896 1686.53 850.944 1684.48C852.992 1682.43 855.04 1681.24 857.088 1680.9C859.136 1680.55 860.672 1679.53 861.696 1677.82C862.72 1676.12 929.963 1634.13 1063.42 1551.87C1196.89 1469.61 1359.53 1368.41 1551.36 1248.26C1743.19 1128.11 1839.62 1065.81 1840.64 1061.38C1841.66 1056.94 1842.01 1045.5 1841.66 1027.07C1841.32 1008.64 1842.01 976.896 1843.71 931.84C1845.42 886.784 1846.27 848.384 1846.27 816.64C1846.27 784.896 1846.61 766.123 1847.3 760.32C1847.98 754.517 1848.15 746.496 1847.81 736.256C1847.47 726.016 1846.78 717.995 1845.76 712.192C1844.74 706.389 1843.37 703.147 1841.66 702.464C1839.96 701.781 1837.74 699.392 1835.01 695.296C1832.28 691.2 1826.82 686.421 1818.62 680.96C1810.43 675.499 1791.15 665.6 1760.77 651.264C1730.39 636.928 1712.98 628.053 1708.54 624.64C1704.11 621.227 1700.01 619.008 1696.26 617.984C1692.5 616.96 1690.62 605.525 1690.62 583.68C1690.62 561.835 1687.21 547.499 1680.38 540.672C1673.56 533.845 1670.83 528.384 1672.19 524.288C1673.56 520.192 1673.56 516.437 1672.19 513.024C1670.83 509.611 1668.78 507.221 1666.05 505.856C1663.32 504.491 1659.56 503.637 1654.78 503.296C1650.01 502.955 1646.08 501.931 1643.01 500.224C1639.94 498.517 1636.52 497.323 1632.77 496.64C1629.01 495.957 1623.04 493.568 1614.85 489.472C1606.66 485.376 1600.17 483.669 1595.39 484.352C1590.61 485.035 1586.18 484.864 1582.08 483.84C1577.98 482.816 1574.23 482.475 1570.82 482.816C1567.4 483.157 1560.75 485.717 1550.85 490.496C1540.95 495.275 1533.27 497.323 1527.81 496.64C1522.35 495.957 1517.74 495.957 1513.98 496.64C1510.23 497.323 1506.82 499.541 1503.74 503.296C1500.67 507.051 1498.79 509.781 1498.11 511.488C1497.43 513.195 1497.26 516.437 1497.6 521.216C1497.94 525.995 1497.6 528.725 1496.58 529.408C1496.06 529.749 1495.55 530.091 1495.04 530.432C1495.04 530.091 1495.04 529.749 1495.04 529.408C1495.04 528.725 1490.6 526.165 1481.73 521.728C1472.85 517.291 1463.47 513.365 1453.57 509.952C1443.67 506.539 1431.04 500.907 1415.68 493.056C1400.32 485.205 1390.93 472.576 1387.52 455.168C1384.11 437.76 1383.25 428.373 1384.96 427.008C1386.67 425.643 1387.86 423.424 1388.54 420.352C1389.23 417.28 1387.86 412.843 1384.45 407.04C1381.03 401.237 1379.5 397.141 1379.84 394.752C1380.18 392.363 1381.03 390.144 1382.4 388.096C1383.77 386.048 1384.45 383.659 1384.45 380.928C1384.45 378.197 1383.94 376.32 1382.91 375.296C1381.89 374.272 1379.67 373.248 1376.26 372.224C1372.84 371.2 1365.5 370.347 1354.24 369.664C1342.98 368.981 1336.15 368.128 1333.76 367.104C1331.37 366.08 1327.62 363.008 1322.5 357.888C1317.38 352.768 1313.79 349.867 1311.74 349.184C1309.7 348.501 1305.43 348.16 1298.94 348.16C1292.46 348.16 1283.24 351.403 1271.3 357.888ZM1300.48 357.888C1305.26 358.229 1309.01 359.253 1311.74 360.96C1314.47 362.667 1316.18 364.203 1316.86 365.568C1317.21 366.251 1317.55 366.933 1317.89 367.616C1315.33 367.104 1312.77 366.592 1310.21 366.08C1305.09 365.056 1298.26 364.885 1289.73 365.568C1285.46 365.909 1281.19 366.251 1276.93 366.592C1279.66 365.056 1282.39 363.52 1285.12 361.984C1290.58 358.912 1295.7 357.547 1300.48 357.888ZM1234.43 378.88C1236.99 379.221 1239.55 379.563 1242.11 379.904C1240.58 382.123 1239.04 384.341 1237.5 386.56C1234.43 390.997 1232.73 395.947 1232.38 401.408C1232.04 406.869 1232.38 410.795 1233.41 413.184C1234.43 415.573 1236.65 418.304 1240.06 421.376C1241.77 422.912 1243.48 424.448 1245.18 425.984C1243.48 425.301 1241.77 424.619 1240.06 423.936C1236.65 422.571 1232.55 421.888 1227.78 421.888C1223 421.888 1219.24 422.229 1216.51 422.912C1213.78 423.595 1210.88 424.96 1207.81 427.008C1206.27 428.032 1204.74 429.056 1203.2 430.08C1203.2 427.52 1203.2 424.96 1203.2 422.4C1203.2 417.28 1205.25 412.16 1209.34 407.04C1213.44 401.92 1215.83 396.629 1216.51 391.168C1217.19 385.707 1219.07 382.123 1222.14 380.416C1225.22 378.709 1229.31 378.197 1234.43 378.88ZM1276.42 377.856C1282.22 377.856 1285.63 378.197 1286.66 378.88C1287.68 379.563 1288.53 379.563 1289.22 378.88C1289.9 378.197 1292.12 377.856 1295.87 377.856C1299.63 377.856 1304.06 378.368 1309.18 379.392C1314.3 380.416 1319.59 382.464 1325.06 385.536C1330.52 388.608 1333.59 392.021 1334.27 395.776C1334.95 399.531 1333.42 402.773 1329.66 405.504C1325.91 408.235 1321.13 410.795 1315.33 413.184C1309.53 415.573 1302.87 417.28 1295.36 418.304C1287.85 419.328 1279.66 419.669 1270.78 419.328C1261.91 418.987 1255.25 417.28 1250.82 414.208C1246.38 411.136 1243.99 407.723 1243.65 403.968C1243.31 400.213 1244.67 396.288 1247.74 392.192C1250.82 388.096 1254.91 384.683 1260.03 381.952C1265.15 379.221 1270.61 377.856 1276.42 377.856ZM1339.39 378.88C1345.19 379.221 1351 379.563 1356.8 379.904C1362.6 380.245 1368.41 380.587 1374.21 380.928C1373.35 383.829 1372.5 386.731 1371.65 389.632C1369.94 395.435 1369.43 399.701 1370.11 402.432C1370.79 405.163 1372.33 408.405 1374.72 412.16C1375.91 414.037 1377.11 415.915 1378.3 417.792C1373.18 419.669 1368.06 421.547 1362.94 423.424C1352.7 427.179 1345.02 431.616 1339.9 436.736C1334.78 441.856 1331.03 444.587 1328.64 444.928C1326.25 445.269 1323.52 444.075 1320.45 441.344C1317.38 438.613 1313.96 437.077 1310.21 436.736C1306.45 436.395 1301.16 437.931 1294.34 441.344C1287.51 444.757 1282.22 446.635 1278.46 446.976C1274.71 447.317 1271.13 446.635 1267.71 444.928C1264.3 443.221 1260.2 439.979 1255.42 435.2C1253.03 432.811 1250.65 430.421 1248.26 428.032C1249.96 428.544 1251.67 429.056 1253.38 429.568C1256.79 430.592 1262.25 431.275 1269.76 431.616C1277.27 431.957 1285.97 431.445 1295.87 430.08C1305.77 428.715 1313.45 427.008 1318.91 424.96C1324.37 422.912 1328.81 420.864 1332.22 418.816C1335.64 416.768 1339.05 413.525 1342.46 409.088C1345.88 404.651 1347.41 400.043 1347.07 395.264C1346.73 390.485 1345.37 386.56 1342.98 383.488C1341.78 381.952 1340.59 380.416 1339.39 378.88ZM1376.26 430.08C1376.94 430.08 1377.45 435.2 1377.79 445.44C1378.13 455.68 1379.16 464.555 1380.86 472.064C1381.72 475.819 1382.57 479.573 1383.42 483.328C1380.18 482.133 1376.94 480.939 1373.7 479.744C1367.21 477.355 1363.97 473.259 1363.97 467.456C1363.97 461.653 1362.94 455.509 1360.9 449.024C1358.85 442.539 1357.99 438.613 1358.34 437.248C1358.68 435.883 1361.58 434.347 1367.04 432.64C1372.5 430.933 1375.57 430.08 1376.26 430.08ZM1228.29 434.176C1233.41 434.176 1237.5 435.029 1240.58 436.736C1242.11 437.589 1243.65 438.443 1245.18 439.296C1244.16 439.979 1243.14 440.661 1242.11 441.344C1240.06 442.709 1238.36 454.144 1236.99 475.648C1235.63 497.152 1233.58 514.389 1230.85 527.36C1229.48 533.845 1228.12 540.331 1226.75 546.816C1225.73 546.475 1224.7 546.133 1223.68 545.792C1221.63 545.109 1219.24 543.403 1216.51 540.672C1213.78 537.941 1209.51 531.456 1203.71 521.216C1197.91 510.976 1196.2 504.491 1198.59 501.76C1200.98 499.029 1202.69 496.128 1203.71 493.056C1204.74 489.984 1205.76 482.475 1206.78 470.528C1207.81 458.581 1207.98 450.219 1207.3 445.44C1206.61 440.661 1208.66 437.589 1213.44 436.224C1218.22 434.859 1223.17 434.176 1228.29 434.176ZM1246.21 441.344C1248.6 443.563 1250.99 445.781 1253.38 448C1258.15 452.437 1262.59 455.339 1266.69 456.704C1268.74 457.387 1270.78 458.069 1272.83 458.752C1272.32 460.288 1271.81 461.824 1271.3 463.36C1270.27 466.432 1269.76 470.699 1269.76 476.16C1269.76 481.621 1267.88 485.717 1264.13 488.448C1260.37 491.179 1257.81 493.739 1256.45 496.128C1255.08 498.517 1254.23 502.101 1253.89 506.88C1253.55 511.659 1252.86 514.389 1251.84 515.072C1250.82 515.755 1249.96 518.144 1249.28 522.24C1248.6 526.336 1248.26 532.992 1248.26 542.208C1248.26 546.816 1248.26 551.424 1248.26 556.032C1247.57 555.52 1246.89 555.008 1246.21 554.496C1244.84 553.472 1242.28 552.619 1238.53 551.936C1236.65 551.595 1234.77 551.253 1232.9 550.912C1234.09 544.085 1235.29 537.259 1236.48 530.432C1238.87 516.779 1240.92 500.224 1242.62 480.768C1244.33 461.312 1245.53 450.901 1246.21 449.536C1246.89 448.171 1247.06 446.464 1246.72 444.416C1246.55 443.392 1246.38 442.368 1246.21 441.344ZM1348.61 442.368C1349.29 442.368 1350.14 444.928 1351.17 450.048C1352.19 455.168 1352.87 460.459 1353.22 465.92C1353.39 468.651 1353.56 471.381 1353.73 474.112C1348.1 473.941 1342.46 473.771 1336.83 473.6C1331.2 473.429 1325.57 473.259 1319.94 473.088C1320.11 470.016 1320.28 466.944 1320.45 463.872C1320.79 457.728 1323.18 454.656 1327.62 454.656C1332.05 454.656 1335.64 453.803 1338.37 452.096C1341.1 450.389 1343.32 448.341 1345.02 445.952C1346.73 443.563 1347.93 442.368 1348.61 442.368ZM1312.26 449.536C1315.33 450.901 1316.52 454.997 1315.84 461.824C1315.16 468.651 1313.11 472.064 1309.7 472.064C1307.99 472.064 1306.28 472.064 1304.58 472.064C1304.75 468.139 1304.92 464.213 1305.09 460.288C1305.43 452.437 1305.94 448.341 1306.62 448C1307.31 447.659 1309.18 448.171 1312.26 449.536ZM1300.48 449.536C1300.65 451.925 1300.82 454.315 1300.99 456.704C1301.33 461.483 1301.16 465.408 1300.48 468.48C1299.8 471.552 1295.36 474.453 1287.17 477.184C1283.07 478.549 1278.98 479.915 1274.88 481.28C1274.88 477.525 1274.88 473.771 1274.88 470.016C1274.88 462.507 1277.1 458.411 1281.54 457.728C1285.97 457.045 1290.24 455.509 1294.34 453.12C1296.38 451.925 1298.43 450.731 1300.48 449.536ZM921.088 451.584C924.843 451.584 936.96 455.168 957.44 462.336C977.92 469.504 993.621 476.16 1004.54 482.304C1015.47 488.448 1037.99 498.688 1072.13 513.024C1106.26 527.36 1127.77 537.259 1136.64 542.72C1145.51 548.181 1159.68 555.349 1179.14 564.224C1198.59 573.099 1217.88 582.656 1236.99 592.896C1256.11 603.136 1273.17 611.499 1288.19 617.984C1303.21 624.469 1316.52 630.955 1328.13 637.44C1339.73 643.925 1355.09 651.264 1374.21 659.456C1393.32 667.648 1413.12 675.499 1433.6 683.008C1454.08 690.517 1466.37 696.832 1470.46 701.952C1474.56 707.072 1476.78 710.485 1477.12 712.192C1477.46 713.899 1387.69 775.851 1207.81 898.048C1027.93 1020.25 934.741 1083.22 928.256 1086.98C921.771 1090.73 902.656 1103.87 870.912 1126.4C839.168 1148.93 822.443 1160.36 820.736 1160.7C819.029 1161.05 816.981 1160.36 814.592 1158.66C812.203 1156.95 805.035 1154.9 793.088 1152.51C781.141 1150.12 770.731 1147.39 761.856 1144.32C752.981 1141.25 742.571 1136.47 730.624 1129.98C718.677 1123.5 702.123 1115.65 680.96 1106.43C659.797 1097.22 646.656 1090.73 641.536 1086.98C636.416 1083.22 624.299 1075.88 605.184 1064.96C586.069 1054.04 562.517 1041.92 534.528 1028.61C506.539 1015.3 488.789 1006.25 481.28 1001.47C473.771 996.693 464.725 991.744 454.144 986.624C443.563 981.504 429.227 973.483 411.136 962.56C393.045 951.637 381.611 945.152 376.832 943.104C372.053 941.056 363.008 935.595 349.696 926.72C336.384 917.845 328.021 912.725 324.608 911.36C321.195 909.995 317.44 907.605 313.344 904.192C309.248 900.779 303.957 897.195 297.472 893.44C290.987 889.685 286.208 886.272 283.136 883.2C280.064 880.128 275.797 877.909 270.336 876.544C264.875 875.179 260.437 873.472 257.024 871.424C253.611 869.376 251.733 866.645 251.392 863.232C251.051 859.819 254.464 856.064 261.632 851.968C268.8 847.872 274.944 843.776 280.064 839.68C285.184 835.584 293.547 830.293 305.152 823.808C310.955 820.565 316.757 817.323 322.56 814.08C320.341 815.616 318.123 817.152 315.904 818.688C311.467 821.76 308.224 824.832 306.176 827.904C304.128 830.976 301.909 833.195 299.52 834.56C297.131 835.925 295.936 837.291 295.936 838.656C295.936 839.339 295.936 840.021 295.936 840.704C296.619 840.704 297.301 840.704 297.984 840.704C299.349 840.704 302.592 839.339 307.712 836.608C312.832 833.877 318.464 834.901 324.608 839.68C330.752 844.459 335.872 847.36 339.968 848.384C344.064 849.408 350.037 852.139 357.888 856.576C365.739 861.013 372.053 864.085 376.832 865.792C381.611 867.499 388.437 871.083 397.312 876.544C406.187 882.005 428.544 893.781 464.384 911.872C500.224 929.963 532.139 947.541 560.128 964.608C588.117 981.675 608.939 993.621 622.592 1000.45C636.245 1007.27 652.8 1016.49 672.256 1028.1C691.712 1039.7 711.851 1050.62 732.672 1060.86C753.493 1071.1 768.341 1079.13 777.216 1084.93C786.091 1090.73 794.283 1095.34 801.792 1098.75C809.301 1102.17 813.739 1105.24 815.104 1107.97C815.787 1109.33 816.469 1110.7 817.152 1112.06C814.933 1111.55 812.715 1111.04 810.496 1110.53C806.059 1109.5 797.013 1105.41 783.36 1098.24C769.707 1091.07 759.808 1085.44 753.664 1081.34C747.52 1077.25 729.259 1068.03 698.88 1053.7C668.501 1039.36 643.925 1026.9 625.152 1016.32C606.379 1005.74 580.608 990.208 547.84 969.728C515.072 949.248 486.741 932.693 462.848 920.064C438.955 907.435 415.573 896.341 392.704 886.784C369.835 877.227 349.184 867.84 330.752 858.624C312.32 849.408 301.739 844.629 299.008 844.288C296.277 843.947 294.571 844.117 293.888 844.8C293.205 845.483 293.205 847.019 293.888 849.408C294.571 851.797 321.024 864.939 373.248 888.832C425.472 912.725 463.531 931.499 487.424 945.152C511.317 958.805 537.6 974.677 566.272 992.768C594.944 1010.86 615.936 1023.66 629.248 1031.17C642.56 1038.68 662.869 1048.92 690.176 1061.89C717.483 1074.86 740.693 1086.98 759.808 1098.24C778.923 1109.5 792.747 1116.84 801.28 1120.26C809.813 1123.67 816.128 1125.03 820.224 1124.35C824.32 1123.67 827.051 1121.96 828.416 1119.23C829.781 1116.5 843.605 1107.8 869.888 1093.12C896.171 1078.44 918.016 1064.62 935.424 1051.65C952.832 1038.68 968.192 1028.27 981.504 1020.42C994.816 1012.57 1009.49 1002.67 1025.54 990.72C1041.58 978.773 1058.3 967.339 1075.71 956.416C1093.12 945.493 1109.5 934.4 1124.86 923.136C1140.22 911.872 1154.39 903.68 1167.36 898.56C1180.33 893.44 1187.16 889.515 1187.84 886.784C1188.52 884.053 1187.84 881.493 1185.79 879.104C1183.74 876.715 1180.16 874.496 1175.04 872.448C1169.92 870.4 1166.51 869.888 1164.8 870.912C1163.09 871.936 1160.02 871.083 1155.58 868.352C1151.15 865.621 1140.05 860.843 1122.3 854.016C1104.55 847.189 1086.98 839.339 1069.57 830.464C1052.16 821.589 1038.51 814.08 1028.61 807.936C1018.71 801.792 991.915 787.968 948.224 766.464C904.533 744.96 880.469 732.672 876.032 729.6C871.595 726.528 862.891 722.091 849.92 716.288C836.949 710.485 828.928 707.243 825.856 706.56C822.784 705.877 815.787 702.805 804.864 697.344C793.941 691.883 778.069 683.008 757.248 670.72C736.427 658.432 719.531 649.045 706.56 642.56C693.589 636.075 685.739 631.637 683.008 629.248C680.277 626.859 676.523 624.64 671.744 622.592C666.965 620.544 661.845 619.179 656.384 618.496C650.923 617.813 647.851 618.155 647.168 619.52C646.485 620.885 646.485 621.909 647.168 622.592C647.851 623.275 651.264 624.299 657.408 625.664C663.552 627.029 668.501 628.565 672.256 630.272C676.011 631.979 678.912 633.856 680.96 635.904C683.008 637.952 693.76 643.755 713.216 653.312C732.672 662.869 749.227 671.744 762.88 679.936C776.533 688.128 789.333 695.296 801.28 701.44C813.227 707.584 826.539 713.728 841.216 719.872C855.893 726.016 866.475 731.307 872.96 735.744C879.445 740.181 888.491 745.131 900.096 750.592C911.701 756.053 921.941 761.515 930.816 766.976C939.691 772.437 953.856 779.776 973.312 788.992C992.768 798.208 1008.13 806.229 1019.39 813.056C1030.66 819.883 1044.99 827.733 1062.4 836.608C1079.81 845.483 1099.95 854.528 1122.82 863.744C1134.25 868.352 1145.69 872.96 1157.12 877.568C1152.51 881.152 1147.9 884.736 1143.3 888.32C1134.08 895.488 1123.5 902.315 1111.55 908.8C1099.61 915.285 1072.64 932.352 1030.66 960C988.672 987.648 958.464 1006.25 940.032 1015.81C921.6 1025.37 902.997 1036.8 884.224 1050.11C865.451 1063.42 849.579 1074.01 836.608 1081.86C823.637 1089.71 813.056 1091.58 804.864 1087.49C796.672 1083.39 786.944 1077.76 775.68 1070.59C764.416 1063.42 749.909 1055.57 732.16 1047.04C714.411 1038.51 704.853 1033.56 703.488 1032.19C702.123 1030.83 685.909 1021.95 654.848 1005.57C623.787 989.184 593.237 972.117 563.2 954.368C533.163 936.619 505.003 921.429 478.72 908.8C452.437 896.171 429.056 884.395 408.576 873.472C388.096 862.549 376.832 856.917 374.784 856.576C372.736 856.235 367.957 854.016 360.448 849.92C352.939 845.824 346.965 843.264 342.528 842.24C338.091 841.216 332.8 838.485 326.656 834.048C323.584 831.829 320.512 829.611 317.44 827.392C327.851 821.077 338.261 814.763 348.672 808.448C369.493 795.819 384.512 786.091 393.728 779.264C402.944 772.437 423.253 760.149 454.656 742.4C486.059 724.651 513.365 708.608 536.576 694.272C559.787 679.936 572.757 671.573 575.488 669.184C578.219 666.795 580.949 665.088 583.68 664.064C586.411 663.04 593.749 658.261 605.696 649.728C617.643 641.195 626.347 635.563 631.808 632.832C637.269 630.101 640.512 627.712 641.536 625.664C642.048 624.64 642.56 623.616 643.072 622.592C642.389 622.592 641.707 622.592 641.024 622.592C639.659 622.592 635.733 624.469 629.248 628.224C622.763 631.979 616.277 636.416 609.792 641.536C603.307 646.656 598.699 649.387 595.968 649.728C593.237 650.069 589.824 651.264 585.728 653.312C581.632 655.36 566.784 664.576 541.184 680.96C515.584 697.344 485.547 715.435 451.072 735.232C416.597 755.029 389.973 771.072 371.2 783.36C352.427 795.648 342.528 801.792 341.504 801.792C340.992 801.792 340.48 801.792 339.968 801.792C340.821 801.109 341.675 800.427 342.528 799.744C344.235 798.379 352.768 792.576 368.128 782.336C383.488 772.096 401.237 761.173 421.376 749.568C441.515 737.963 457.899 727.893 470.528 719.36C483.157 710.827 513.365 692.053 561.152 663.04C608.939 634.027 633.344 619.52 634.368 619.52C635.392 619.52 646.315 612.864 667.136 599.552C687.957 586.24 717.483 568.661 755.712 546.816C793.941 524.971 823.467 507.051 844.288 493.056C865.109 479.061 882.176 468.651 895.488 461.824C908.8 454.997 917.333 451.584 921.088 451.584ZM1299.46 483.84C1300.48 484.352 1301.5 484.864 1302.53 485.376C1300.14 486.4 1297.75 487.424 1295.36 488.448C1290.58 490.496 1286.66 493.056 1283.58 496.128C1280.51 499.2 1278.12 502.272 1276.42 505.344C1274.71 508.416 1273.69 512.171 1273.34 516.608C1273 521.045 1273.69 524.8 1275.39 527.872C1277.1 530.944 1277.78 532.821 1277.44 533.504C1277.27 533.845 1277.1 534.187 1276.93 534.528C1274.71 532.139 1272.49 529.749 1270.27 527.36C1265.83 522.581 1263.62 517.291 1263.62 511.488C1263.62 505.685 1264.98 501.077 1267.71 497.664C1270.44 494.251 1275.9 490.837 1284.1 487.424C1292.29 484.011 1297.41 482.816 1299.46 483.84ZM1323.01 493.056C1335.98 493.397 1345.19 494.251 1350.66 495.616C1356.12 496.981 1363.11 500.395 1371.65 505.856C1380.18 511.317 1384.96 516.437 1385.98 521.216C1387.01 525.995 1384.96 530.261 1379.84 534.016C1374.72 537.771 1369.26 540.331 1363.46 541.696C1357.65 543.061 1349.46 543.573 1338.88 543.232C1328.3 542.891 1319.25 541.696 1311.74 539.648C1304.23 537.6 1298.26 535.04 1293.82 531.968C1289.39 528.896 1286.49 525.312 1285.12 521.216C1283.75 517.12 1284.1 513.195 1286.14 509.44C1288.19 505.685 1291.61 501.931 1296.38 498.176C1301.16 494.421 1310.04 492.715 1323.01 493.056ZM1577.98 494.08C1581.4 495.104 1586.52 495.445 1593.34 495.104C1600.17 494.763 1606.66 496.469 1612.8 500.224C1618.94 503.979 1623.89 506.197 1627.65 506.88C1631.4 507.563 1635.5 508.928 1639.94 510.976C1644.37 513.024 1648.98 514.219 1653.76 514.56C1658.54 514.901 1661.27 515.755 1661.95 517.12C1662.63 518.485 1662.46 520.363 1661.44 522.752C1660.42 525.141 1660.07 527.872 1660.42 530.944C1660.76 534.016 1661.44 536.405 1662.46 538.112C1663.49 539.819 1665.88 542.037 1669.63 544.768C1673.39 547.499 1675.09 549.717 1674.75 551.424C1674.41 553.131 1668.78 556.544 1657.86 561.664C1646.93 566.784 1635.67 569.856 1624.06 570.88C1618.26 571.392 1612.46 571.904 1606.66 572.416C1611.09 570.709 1615.53 569.003 1619.97 567.296C1628.84 563.883 1635.84 559.957 1640.96 555.52C1646.08 551.083 1649.49 546.304 1651.2 541.184C1652.91 536.064 1653.59 531.968 1653.25 528.896C1652.91 525.824 1651.03 522.581 1647.62 519.168C1644.2 515.755 1637.21 512.171 1626.62 508.416C1616.04 504.661 1605.12 502.272 1593.86 501.248C1582.59 500.224 1572.01 501.077 1562.11 503.808C1552.21 506.539 1545.05 509.269 1540.61 512C1536.17 514.731 1532.42 517.461 1529.34 520.192C1526.27 522.923 1524.22 526.848 1523.2 531.968C1522.18 537.088 1523.2 541.867 1526.27 546.304C1529.34 550.741 1533.1 554.155 1537.54 556.544C1541.97 558.933 1548.46 561.664 1556.99 564.736C1565.53 567.808 1573.21 570.027 1580.03 571.392C1583.45 572.075 1586.86 572.757 1590.27 573.44C1586.86 573.611 1583.45 573.781 1580.03 573.952C1573.21 574.293 1567.57 573.269 1563.14 570.88C1558.7 568.491 1554.09 567.296 1549.31 567.296C1544.53 567.296 1540.44 566.443 1537.02 564.736C1533.61 563.029 1530.71 561.323 1528.32 559.616C1525.93 557.909 1524.57 556.203 1524.22 554.496C1523.88 552.789 1522.86 551.083 1521.15 549.376C1519.45 547.669 1516.2 545.621 1511.42 543.232C1509.03 542.037 1506.65 540.843 1504.26 539.648C1504.94 538.283 1505.62 536.917 1506.3 535.552C1507.67 532.821 1508.18 528.896 1507.84 523.776C1507.5 518.656 1507.67 515.413 1508.35 514.048C1509.03 512.683 1510.06 511.147 1511.42 509.44C1512.79 507.733 1518.08 506.88 1527.3 506.88C1536.51 506.88 1544.7 504.832 1551.87 500.736C1559.04 496.64 1564.33 494.251 1567.74 493.568C1571.16 492.885 1574.57 493.056 1577.98 494.08ZM1388.54 500.736C1390.42 501.76 1392.3 502.784 1394.18 503.808C1397.93 505.856 1400.32 507.733 1401.34 509.44C1402.37 511.147 1402.37 514.389 1401.34 519.168C1400.83 521.557 1400.32 523.947 1399.81 526.336C1399.13 523.605 1398.44 520.875 1397.76 518.144C1396.39 512.683 1394.52 508.416 1392.13 505.344C1390.93 503.808 1389.74 502.272 1388.54 500.736ZM1410.05 500.736C1421.48 506.027 1432.92 511.317 1444.35 516.608C1467.22 527.189 1480.53 533.163 1484.29 534.528C1488.04 535.893 1490.6 536.405 1491.97 536.064C1492.65 535.893 1493.33 535.723 1494.02 535.552C1493.5 548.181 1492.99 560.811 1492.48 573.44C1491.46 598.699 1490.43 612.181 1489.41 613.888C1488.38 615.595 1487.02 616.448 1485.31 616.448C1483.61 616.448 1481.22 617.301 1478.14 619.008C1475.07 620.715 1471.66 624.469 1467.9 630.272C1464.15 636.075 1461.76 643.755 1460.74 653.312C1459.71 662.869 1459.88 669.525 1461.25 673.28C1461.93 675.157 1462.61 677.035 1463.3 678.912C1455.96 676.352 1448.62 673.792 1441.28 671.232C1426.6 666.112 1419.09 659.968 1418.75 652.8C1418.41 645.632 1419.09 636.928 1420.8 626.688C1422.51 616.448 1423.36 599.723 1423.36 576.512C1423.36 553.301 1423.02 538.624 1422.34 532.48C1421.65 526.336 1420.8 522.581 1419.78 521.216C1418.75 519.851 1417.56 519.168 1416.19 519.168C1415.51 519.168 1414.83 519.168 1414.14 519.168C1414.14 517.12 1414.14 515.072 1414.14 513.024C1414.14 508.928 1413.46 505.856 1412.1 503.808C1411.41 502.784 1410.73 501.76 1410.05 500.736ZM1186.82 510.976C1187.84 513.877 1188.86 516.779 1189.89 519.68C1191.94 525.483 1194.84 531.285 1198.59 537.088C1202.35 542.891 1205.76 547.328 1208.83 550.4C1211.9 553.472 1217.19 556.715 1224.7 560.128C1232.21 563.541 1237.67 565.248 1241.09 565.248C1244.5 565.248 1246.72 564.736 1247.74 563.712C1248.26 563.2 1248.77 562.688 1249.28 562.176C1249.45 565.931 1249.62 569.685 1249.79 573.44C1249.96 577.195 1250.13 580.949 1250.3 584.704C1239.72 579.584 1229.14 574.464 1218.56 569.344C1197.4 559.104 1186.82 552.619 1186.82 549.888C1186.82 547.157 1185.62 543.915 1183.23 540.16C1180.84 536.405 1179.65 532.992 1179.65 529.92C1179.65 526.848 1180.84 522.923 1183.23 518.144C1184.43 515.755 1185.62 513.365 1186.82 510.976ZM1562.62 513.024C1564.67 513.707 1569.79 513.877 1577.98 513.536C1586.18 513.195 1593.51 513.536 1600 514.56C1606.49 515.584 1614.68 517.973 1624.58 521.728C1634.47 525.483 1639.59 529.067 1639.94 532.48C1640.28 535.893 1638.91 539.477 1635.84 543.232C1632.77 546.987 1627.99 550.4 1621.5 553.472C1615.02 556.544 1607.17 558.421 1597.95 559.104C1588.74 559.787 1581.91 559.616 1577.47 558.592C1573.03 557.568 1565.53 555.008 1554.94 550.912C1544.36 546.816 1537.88 543.573 1535.49 541.184C1533.1 538.795 1532.42 535.723 1533.44 531.968C1534.46 528.213 1537.37 524.629 1542.14 521.216C1546.92 517.803 1551.02 515.413 1554.43 514.048C1557.85 512.683 1560.58 512.341 1562.62 513.024ZM1257.47 528.384C1258.33 529.067 1259.18 529.749 1260.03 530.432C1261.74 531.797 1262.25 539.477 1261.57 553.472C1260.89 567.467 1260.89 577.195 1261.57 582.656C1261.91 585.387 1262.25 588.117 1262.59 590.848C1261.57 590.336 1260.54 589.824 1259.52 589.312C1257.47 588.288 1256.79 586.581 1257.47 584.192C1258.15 581.803 1258.33 571.904 1257.98 554.496C1257.81 545.792 1257.64 537.088 1257.47 528.384ZM1410.05 529.408C1410.39 530.432 1410.73 531.456 1411.07 532.48C1411.75 534.528 1412.27 556.373 1412.61 598.016C1412.78 618.837 1412.95 639.659 1413.12 660.48C1412.27 660.139 1411.41 659.797 1410.56 659.456C1408.85 658.773 1408.34 644.608 1409.02 616.96C1409.71 589.312 1409.71 569.856 1409.02 558.592C1408.34 547.328 1407.66 541.184 1406.98 540.16C1406.29 539.136 1405.44 538.795 1404.42 539.136C1403.39 539.477 1403.22 559.275 1403.9 598.528C1404.25 618.155 1404.59 637.781 1404.93 657.408C1403.73 656.896 1402.54 656.384 1401.34 655.872C1398.95 654.848 1397.25 649.387 1396.22 639.488C1395.2 629.589 1394.86 617.131 1395.2 602.112C1395.54 587.093 1395.37 575.488 1394.69 567.296C1394.01 559.104 1393.32 554.667 1392.64 553.984C1391.96 553.301 1390.93 553.301 1389.57 553.984C1388.2 554.667 1387.52 556.885 1387.52 560.64C1387.52 564.395 1388.37 580.608 1390.08 609.28C1390.93 623.616 1391.79 637.952 1392.64 652.288C1390.93 651.435 1389.23 650.581 1387.52 649.728C1384.11 648.021 1382.4 636.075 1382.4 613.888C1382.4 591.701 1381.89 576.512 1380.86 568.32C1380.35 564.224 1379.84 560.128 1379.33 556.032C1378.65 556.203 1377.96 556.373 1377.28 556.544C1375.91 556.885 1375.74 571.733 1376.77 601.088C1377.28 615.765 1377.79 630.443 1378.3 645.12C1375.4 643.925 1372.5 642.731 1369.6 641.536C1363.8 639.147 1361.07 627.029 1361.41 605.184C1361.75 583.339 1361.58 571.221 1360.9 568.832C1360.55 567.637 1360.21 566.443 1359.87 565.248C1359.19 565.589 1358.51 565.931 1357.82 566.272C1356.46 566.955 1356.12 578.901 1356.8 602.112C1357.14 613.717 1357.48 625.323 1357.82 636.928C1354.41 635.221 1351 633.515 1347.58 631.808C1340.76 628.395 1336.83 615.595 1335.81 593.408C1334.78 571.221 1333.93 560.128 1333.25 560.128C1332.57 560.128 1332.05 565.248 1331.71 575.488C1331.37 585.728 1331.37 596.309 1331.71 607.232C1331.88 612.693 1332.05 618.155 1332.22 623.616C1325.4 620.373 1318.57 617.131 1311.74 613.888C1298.09 607.403 1291.43 595.968 1291.78 579.584C1291.95 571.392 1292.12 563.2 1292.29 555.008C1291.78 555.008 1291.26 555.008 1290.75 555.008C1289.73 555.008 1289.05 562.859 1288.7 578.56C1288.53 586.411 1288.36 594.261 1288.19 602.112C1287.51 601.941 1286.83 601.771 1286.14 601.6C1284.78 601.259 1284.27 593.237 1284.61 577.536C1284.95 561.835 1284.78 553.472 1284.1 552.448C1283.41 551.424 1282.56 550.912 1281.54 550.912C1281.02 550.912 1280.51 550.912 1280 550.912C1280 558.933 1280 566.955 1280 574.976C1280 582.997 1280 591.019 1280 599.04C1277.27 597.845 1274.54 596.651 1271.81 595.456C1269.08 594.261 1266.35 593.067 1263.62 591.872C1264.13 591.701 1264.64 591.531 1265.15 591.36C1266.18 591.019 1266.86 589.653 1267.2 587.264C1267.54 584.875 1267.88 576.341 1268.22 561.664C1268.39 554.325 1268.57 546.987 1268.74 539.648C1269.25 540.16 1269.76 540.672 1270.27 541.184C1271.3 542.208 1271.47 543.915 1270.78 546.304C1270.1 548.693 1269.59 557.056 1269.25 571.392C1269.08 578.56 1268.91 585.728 1268.74 592.896C1269.42 592.725 1270.1 592.555 1270.78 592.384C1272.15 592.043 1273.17 584.704 1273.86 570.368C1274.54 556.032 1275.05 548.181 1275.39 546.816C1275.73 545.451 1276.25 544.768 1276.93 544.768C1277.61 544.768 1279.49 545.963 1282.56 548.352C1285.63 550.741 1290.24 552.619 1296.38 553.984C1302.53 555.349 1305.94 563.371 1306.62 578.048C1307.31 592.725 1307.99 601.6 1308.67 604.672C1309.35 607.744 1310.04 609.28 1310.72 609.28C1311.4 609.28 1311.91 605.696 1312.26 598.528C1312.6 591.36 1312.26 582.656 1311.23 572.416C1310.72 567.296 1310.21 562.176 1309.7 557.056C1313.96 557.568 1318.23 558.08 1322.5 558.592C1331.03 559.616 1340.93 559.787 1352.19 559.104C1363.46 558.421 1374.04 555.52 1383.94 550.4C1393.83 545.28 1400.32 541.355 1403.39 538.624C1406.46 535.893 1408.34 533.675 1409.02 531.968C1409.37 531.115 1409.71 530.261 1410.05 529.408ZM864.768 545.28C857.6 546.987 847.189 552.107 833.536 560.64C819.883 569.173 810.667 574.464 805.888 576.512C801.109 578.56 795.307 581.803 788.48 586.24C781.653 590.677 777.728 593.579 776.704 594.944C775.68 596.309 775.168 597.845 775.168 599.552C775.168 601.259 775.851 602.624 777.216 603.648C778.581 604.672 780.8 605.355 783.872 605.696C786.944 606.037 793.771 602.965 804.352 596.48C814.933 589.995 822.955 585.899 828.416 584.192C833.877 582.485 844.8 585.728 861.184 593.92C877.568 602.112 889.344 608.427 896.512 612.864C903.68 617.301 909.141 619.349 912.896 619.008C916.651 618.667 919.04 617.984 920.064 616.96C921.088 615.936 921.088 614.059 920.064 611.328C919.04 608.597 914.773 605.184 907.264 601.088C899.755 596.992 891.051 593.067 881.152 589.312C871.253 585.557 863.744 582.315 858.624 579.584C853.504 576.853 850.432 574.805 849.408 573.44C848.896 572.757 848.384 572.075 847.872 571.392C850.944 569.856 854.016 568.32 857.088 566.784C863.232 563.712 868.011 562.176 871.424 562.176C874.837 562.176 886.272 567.125 905.728 577.024C925.184 586.923 937.813 591.531 943.616 590.848C949.419 590.165 952.661 588.459 953.344 585.728C954.027 582.997 952.149 579.755 947.712 576C943.275 572.245 935.936 568.149 925.696 563.712C915.456 559.275 907.093 555.008 900.608 550.912C894.123 546.816 888.32 544.427 883.2 543.744C878.08 543.061 871.936 543.573 864.768 545.28ZM1501.18 550.912C1501.87 550.912 1502.38 551.595 1502.72 552.96C1503.06 554.325 1502.55 558.592 1501.18 565.76C1500.5 569.344 1499.82 572.928 1499.14 576.512C1499.31 572.245 1499.48 567.979 1499.65 563.712C1499.99 555.179 1500.5 550.912 1501.18 550.912ZM1511.42 560.128C1515.86 562.859 1520.3 565.589 1524.74 568.32C1533.61 573.781 1541.12 576.683 1547.26 577.024C1553.41 577.365 1558.7 578.731 1563.14 581.12C1567.57 583.509 1572.35 584.704 1577.47 584.704C1582.59 584.704 1587.37 584.021 1591.81 582.656C1596.25 581.291 1602.56 580.779 1610.75 581.12C1618.94 581.461 1623.72 581.291 1625.09 580.608C1626.45 579.925 1629.53 579.584 1634.3 579.584C1639.08 579.584 1643.18 578.901 1646.59 577.536C1648.3 576.853 1650.01 576.171 1651.71 575.488C1651.71 585.899 1651.71 596.309 1651.71 606.72C1651.71 627.541 1651.2 641.195 1650.18 647.68C1649.15 654.165 1649.15 658.261 1650.18 659.968C1651.2 661.675 1652.57 662.528 1654.27 662.528C1655.98 662.528 1657.34 661.845 1658.37 660.48C1659.39 659.115 1660.42 653.995 1661.44 645.12C1662.46 636.245 1662.46 627.883 1661.44 620.032C1660.42 612.181 1659.9 603.307 1659.9 593.408C1659.9 583.509 1659.22 577.536 1657.86 575.488C1657.17 574.464 1656.49 573.44 1655.81 572.416C1659.73 570.88 1663.66 569.344 1667.58 567.808C1671.51 566.272 1675.43 564.736 1679.36 563.2C1679.02 573.44 1678.68 583.68 1678.34 593.92C1677.65 614.4 1677.99 627.2 1679.36 632.32C1680.73 637.44 1680.38 641.536 1678.34 644.608C1676.29 647.68 1672.7 651.435 1667.58 655.872C1662.46 660.309 1655.47 664.576 1646.59 668.672C1637.72 672.768 1623.72 676.352 1604.61 679.424C1585.49 682.496 1571.84 683.861 1563.65 683.52C1555.46 683.179 1548.46 681.984 1542.66 679.936C1536.85 677.888 1533.95 675.84 1533.95 673.792C1533.95 671.744 1535.49 668.331 1538.56 663.552C1541.63 658.773 1543.34 655.36 1543.68 653.312C1543.85 652.288 1544.02 651.264 1544.19 650.24C1542.49 652.288 1540.78 654.336 1539.07 656.384C1537.37 658.432 1535.66 660.48 1533.95 662.528C1534.46 660.309 1534.98 658.091 1535.49 655.872C1536.51 651.435 1537.19 642.048 1537.54 627.712C1537.88 613.376 1537.71 601.941 1537.02 593.408C1536.34 584.875 1535.66 580.096 1534.98 579.072C1534.29 578.048 1533.27 577.536 1531.9 577.536C1530.54 577.536 1529.34 578.389 1528.32 580.096C1527.3 581.803 1526.95 591.019 1527.3 607.744C1527.64 624.469 1527.13 638.976 1525.76 651.264C1525.08 657.408 1524.39 663.552 1523.71 669.696C1520.81 667.819 1517.91 665.941 1515.01 664.064C1509.21 660.309 1503.57 655.531 1498.11 649.728C1492.65 643.925 1489.41 640 1488.38 637.952C1487.36 635.904 1486.85 634.368 1486.85 633.344C1486.85 632.32 1488.55 630.272 1491.97 627.2C1495.38 624.128 1498.45 619.008 1501.18 611.84C1503.91 604.672 1506.3 594.261 1508.35 580.608C1509.38 573.781 1510.4 566.955 1511.42 560.128ZM1567.23 591.872C1566.21 595.285 1565.35 604.501 1564.67 619.52C1563.99 634.539 1562.79 647.168 1561.09 657.408C1559.38 667.648 1559.04 674.304 1560.06 677.376C1561.09 680.448 1562.28 681.984 1563.65 681.984C1565.01 681.984 1566.38 680.789 1567.74 678.4C1569.11 676.011 1570.47 668.843 1571.84 656.896C1573.21 644.949 1574.06 630.784 1574.4 614.4C1574.74 598.016 1574.57 589.312 1573.89 588.288C1573.21 587.264 1572.18 586.752 1570.82 586.752C1569.45 586.752 1568.26 588.459 1567.23 591.872ZM1618.43 593.92C1617.41 595.285 1616.73 597.845 1616.38 601.6C1616.04 605.355 1615.87 614.229 1615.87 628.224C1615.87 642.219 1616.04 652.459 1616.38 658.944C1616.73 665.429 1617.41 669.355 1618.43 670.72C1619.46 672.085 1620.65 672.768 1622.02 672.768C1623.38 672.768 1624.58 672.256 1625.6 671.232C1626.62 670.208 1627.14 657.579 1627.14 633.344C1627.14 609.109 1626.62 596.139 1625.6 594.432C1624.58 592.725 1623.38 591.872 1622.02 591.872C1620.65 591.872 1619.46 592.555 1618.43 593.92ZM936.448 617.984C925.184 626.517 917.675 633.344 913.92 638.464C910.165 643.584 908.288 648.363 908.288 652.8C908.288 657.237 910.677 662.187 915.456 667.648C920.235 673.109 928.597 677.888 940.544 681.984C952.491 686.08 963.755 688.128 974.336 688.128C984.917 688.128 993.451 686.592 999.936 683.52C1006.42 680.448 1015.13 673.792 1026.05 663.552C1036.97 653.312 1042.43 647.168 1042.43 645.12C1042.43 643.072 1041.92 641.536 1040.9 640.512C1039.87 639.488 1038.17 638.976 1035.78 638.976C1033.39 638.976 1026.39 643.584 1014.78 652.8C1003.18 662.016 993.28 667.989 985.088 670.72C976.896 673.451 970.581 674.645 966.144 674.304C961.707 673.963 954.027 671.403 943.104 666.624C932.181 661.845 926.379 658.091 925.696 655.36C925.013 652.629 925.696 649.557 927.744 646.144C929.792 642.731 933.888 638.635 940.032 633.856C946.176 629.077 950.955 626.005 954.368 624.64C957.781 623.275 960.683 621.397 963.072 619.008C965.461 616.619 966.656 614.229 966.656 611.84C966.656 609.451 966.144 607.744 965.12 606.72C964.096 605.696 961.877 605.184 958.464 605.184C955.051 605.184 947.712 609.451 936.448 617.984ZM1700.86 633.856C1717.59 642.048 1734.31 650.24 1751.04 658.432C1784.49 674.816 1804.46 685.227 1810.94 689.664C1817.43 694.101 1821.87 697.856 1824.26 700.928C1825.45 702.464 1826.65 704 1827.84 705.536C1825.62 706.389 1823.4 707.243 1821.18 708.096C1816.75 709.803 1793.19 724.651 1750.53 752.64C1707.86 780.629 1671.85 801.451 1642.5 815.104C1613.14 828.757 1592.32 838.827 1580.03 845.312C1567.74 851.797 1559.04 856.917 1553.92 860.672C1548.8 864.427 1545.73 866.133 1544.7 865.792C1543.68 865.451 1542.14 860.501 1540.1 850.944C1538.05 841.387 1536.34 835.413 1534.98 833.024C1533.61 830.635 1530.71 829.611 1526.27 829.952C1521.83 830.293 1518.59 830.976 1516.54 832C1514.5 833.024 1512.28 835.072 1509.89 838.144C1507.5 841.216 1504.43 843.776 1500.67 845.824C1496.92 847.872 1492.65 851.285 1487.87 856.064C1483.09 860.843 1478.83 864.427 1475.07 866.816C1471.32 869.205 1461.76 878.421 1446.4 894.464C1431.04 910.507 1418.58 922.453 1409.02 930.304C1399.47 938.155 1381.38 955.563 1354.75 982.528C1328.13 1009.49 1298.09 1037.48 1264.64 1066.5C1231.19 1095.51 1196.71 1127.77 1161.22 1163.26C1125.72 1198.76 1099.95 1223.51 1083.9 1237.5C1067.86 1251.5 1052.67 1265.83 1038.34 1280.51C1024 1295.19 1012.57 1306.28 1004.03 1313.79C995.499 1321.3 986.453 1328.3 976.896 1334.78C967.339 1341.27 958.805 1347.93 951.296 1354.75C943.787 1361.58 934.4 1369.09 923.136 1377.28C911.872 1385.47 902.315 1393.66 894.464 1401.86C886.613 1410.05 880.981 1416.53 877.568 1421.31C874.155 1426.09 868.693 1432.06 861.184 1439.23C853.675 1446.4 849.067 1451.35 847.36 1454.08C845.653 1456.81 842.923 1459.71 839.168 1462.78C835.413 1465.86 831.488 1467.9 827.392 1468.93C823.296 1469.95 819.371 1470.12 815.616 1469.44C811.861 1468.76 796.501 1461.76 769.536 1448.45C742.571 1435.14 703.317 1411.93 651.776 1378.82C600.235 1345.71 564.907 1324.03 545.792 1313.79C526.677 1303.55 507.392 1292.29 487.936 1280C468.48 1267.71 450.389 1257.13 433.664 1248.26C416.939 1239.38 404.139 1232.04 395.264 1226.24C386.389 1220.44 372.907 1213.44 354.816 1205.25C336.725 1197.06 322.219 1188.86 311.296 1180.67C300.373 1172.48 292.181 1167.19 286.72 1164.8C281.259 1162.41 278.869 1160.19 279.552 1158.14C280.235 1156.1 281.6 1154.05 283.648 1152C285.696 1149.95 289.621 1146.2 295.424 1140.74C301.227 1135.27 306.688 1130.84 311.808 1127.42C316.928 1124.01 323.584 1125.03 331.776 1130.5C339.968 1135.96 352.085 1142.95 368.128 1151.49C384.171 1160.02 392.533 1169.07 393.216 1178.62C393.899 1188.18 395.093 1195.35 396.8 1200.13C398.507 1204.91 402.603 1211.9 409.088 1221.12C415.573 1230.34 422.229 1237.5 429.056 1242.62C435.883 1247.74 442.539 1251.33 449.024 1253.38C455.509 1255.42 459.947 1256.45 462.336 1256.45C464.725 1256.45 466.432 1256.11 467.456 1255.42C468.48 1254.74 473.259 1254.06 481.792 1253.38C490.325 1252.69 496.981 1251.67 501.76 1250.3C506.539 1248.94 510.635 1247.23 514.048 1245.18C517.461 1243.14 530.091 1249.96 551.936 1265.66C573.781 1281.37 601.941 1298.6 636.416 1317.38C670.891 1336.15 705.707 1356.97 740.864 1379.84C776.021 1402.71 797.525 1415.51 805.376 1418.24C813.227 1420.97 820.053 1421.99 825.856 1421.31C831.659 1420.63 838.656 1417.39 846.848 1411.58C855.04 1405.78 866.816 1395.37 882.176 1380.35C897.536 1365.33 916.651 1348.27 939.52 1329.15C962.389 1310.04 1004.71 1270.95 1066.5 1211.9C1128.28 1152.85 1175.38 1109.67 1207.81 1082.37C1240.23 1055.06 1264.64 1033.73 1281.02 1018.37C1297.41 1003.01 1317.55 985.429 1341.44 965.632C1365.33 945.835 1379.84 933.376 1384.96 928.256C1390.08 923.136 1403.39 911.872 1424.9 894.464C1446.4 877.056 1460.57 865.109 1467.39 858.624C1474.22 852.139 1477.8 847.701 1478.14 845.312C1478.49 842.923 1480.87 841.899 1485.31 842.24C1489.75 842.581 1492.99 842.411 1495.04 841.728C1497.09 841.045 1499.48 839.851 1502.21 838.144C1504.94 836.437 1509.21 832.683 1515.01 826.88C1520.81 821.077 1525.25 815.275 1528.32 809.472C1531.39 803.669 1532.93 797.013 1532.93 789.504C1532.93 781.995 1531.9 776.192 1529.86 772.096C1527.81 768 1524.74 764.757 1520.64 762.368C1516.54 759.979 1514.33 757.248 1513.98 754.176C1513.64 751.104 1511.08 744.107 1506.3 733.184C1501.53 722.261 1498.45 715.605 1497.09 713.216C1495.72 710.827 1494.02 709.291 1491.97 708.608C1489.92 707.925 1488.21 706.048 1486.85 702.976C1486.17 701.44 1485.48 699.904 1484.8 698.368C1487.87 700.245 1490.94 702.123 1494.02 704C1500.16 707.755 1512.96 712.363 1532.42 717.824C1551.87 723.285 1569.11 726.016 1584.13 726.016C1599.15 726.016 1613.48 725.163 1627.14 723.456C1640.79 721.749 1652.57 718.336 1662.46 713.216C1672.36 708.096 1680.04 702.464 1685.5 696.32C1690.97 690.176 1695.06 683.179 1697.79 675.328C1700.52 667.477 1702.06 660.309 1702.4 653.824C1702.74 647.339 1702.57 642.389 1701.89 638.976C1701.55 637.269 1701.21 635.563 1700.86 633.856ZM1478.66 635.904C1479.68 637.781 1480.7 639.659 1481.73 641.536C1483.78 645.291 1489.92 652.117 1500.16 662.016C1510.4 671.915 1517.74 678.229 1522.18 680.96C1526.61 683.691 1532.93 686.421 1541.12 689.152C1549.31 691.883 1557.33 693.419 1565.18 693.76C1573.03 694.101 1582.25 693.589 1592.83 692.224C1603.41 690.859 1615.36 688.64 1628.67 685.568C1641.98 682.496 1653.93 677.376 1664.51 670.208C1675.09 663.04 1682.26 656.384 1686.02 650.24C1689.77 644.096 1691.99 641.024 1692.67 641.024C1693.01 641.024 1693.35 641.024 1693.7 641.024C1693.7 643.925 1693.7 646.827 1693.7 649.728C1693.7 655.531 1693.01 661.333 1691.65 667.136C1690.28 672.939 1688.58 677.547 1686.53 680.96C1684.48 684.373 1680.38 688.64 1674.24 693.76C1668.1 698.88 1662.29 702.635 1656.83 705.024C1651.37 707.413 1642.5 709.461 1630.21 711.168C1617.92 712.875 1603.93 713.728 1588.22 713.728C1572.52 713.728 1555.29 711.168 1536.51 706.048C1517.74 700.928 1503.23 695.125 1492.99 688.64C1482.75 682.155 1476.44 677.035 1474.05 673.28C1471.66 669.525 1470.29 665.429 1469.95 660.992C1469.61 656.555 1469.95 652.459 1470.98 648.704C1472 644.949 1473.54 641.877 1475.58 639.488C1476.61 638.293 1477.63 637.099 1478.66 635.904ZM1054.72 662.528C1054.04 665.259 1054.72 667.819 1056.77 670.208C1058.82 672.597 1062.23 674.645 1067.01 676.352C1071.79 678.059 1081.69 682.837 1096.7 690.688C1104.21 694.613 1111.72 698.539 1119.23 702.464C1098.75 702.293 1078.27 702.123 1057.79 701.952C1016.83 701.611 995.669 702.293 994.304 704C992.939 705.707 992.768 707.755 993.792 710.144C994.816 712.533 1004.54 716.288 1022.98 721.408C1041.41 726.528 1055.91 731.819 1066.5 737.28C1077.08 742.741 1084.07 745.643 1087.49 745.984C1090.9 746.325 1093.29 745.813 1094.66 744.448C1096.02 743.083 1096.7 741.547 1096.7 739.84C1096.7 738.133 1096.02 736.597 1094.66 735.232C1093.29 733.867 1089.88 732.331 1084.42 730.624C1078.95 728.917 1071.27 725.675 1061.38 720.896C1056.43 718.507 1051.48 716.117 1046.53 713.728C1053.18 714.069 1059.84 714.411 1066.5 714.752C1079.81 715.435 1093.97 715.605 1108.99 715.264C1124.01 714.923 1132.54 714.581 1134.59 714.24C1136.64 713.899 1138.86 712.875 1141.25 711.168C1143.64 709.461 1144.66 707.243 1144.32 704.512C1143.98 701.781 1140.91 698.539 1135.1 694.784C1129.3 691.029 1122.47 687.616 1114.62 684.544C1106.77 681.472 1099.61 677.888 1093.12 673.792C1086.63 669.696 1079.64 666.112 1072.13 663.04C1064.62 659.968 1060.01 658.432 1058.3 658.432C1056.6 658.432 1055.4 659.797 1054.72 662.528ZM1832.45 713.216C1833.47 713.557 1834.15 714.411 1834.5 715.776C1834.84 717.141 1835.35 723.115 1836.03 733.696C1836.71 744.277 1836.71 752.811 1836.03 759.296C1835.35 765.781 1834.84 790.869 1834.5 834.56C1834.15 878.251 1833.64 902.656 1832.96 907.776C1832.28 912.896 1831.77 938.496 1831.42 984.576C1831.08 1030.66 1830.4 1054.72 1829.38 1056.77C1828.35 1058.82 1728.17 1121.79 1528.83 1245.7C1329.49 1369.6 1174.19 1466.71 1062.91 1537.02C951.637 1607.34 892.928 1644.37 886.784 1648.13C880.64 1651.88 876.203 1653.76 873.472 1653.76C870.741 1653.76 866.987 1654.95 862.208 1657.34C859.819 1658.54 857.429 1659.73 855.04 1660.93C855.211 1655.3 855.381 1649.66 855.552 1644.03C855.893 1632.77 855.552 1620.31 854.528 1606.66C853.504 1593 851.797 1578.67 849.408 1563.65C847.019 1548.63 844.629 1536.85 842.24 1528.32C839.851 1519.79 838.827 1510.23 839.168 1499.65C839.509 1489.07 840.704 1482.41 842.752 1479.68C844.8 1476.95 847.019 1474.9 849.408 1473.54C851.797 1472.17 853.163 1470.46 853.504 1468.42C853.845 1466.37 854.699 1464.49 856.064 1462.78C857.429 1461.08 863.061 1455.27 872.96 1445.38C882.859 1435.48 891.221 1426.26 898.048 1417.73C904.875 1409.19 916.992 1398.27 934.4 1384.96C951.808 1371.65 962.219 1363.29 965.632 1359.87C969.045 1356.46 975.701 1351.34 985.6 1344.51C995.499 1337.69 1006.42 1328.98 1018.37 1318.4C1030.31 1307.82 1042.94 1295.7 1056.26 1282.05C1069.57 1268.39 1077.42 1260.89 1079.81 1259.52C1082.2 1258.15 1090.73 1250.65 1105.41 1236.99C1120.09 1223.34 1143.13 1200.64 1174.53 1168.9C1205.93 1137.15 1238.19 1106.94 1271.3 1078.27C1304.41 1049.6 1334.61 1021.44 1361.92 993.792C1389.23 966.144 1409.88 946.347 1423.87 934.4C1437.87 922.453 1450.33 910.507 1461.25 898.56C1472.17 886.613 1480.02 879.104 1484.8 876.032C1489.58 872.96 1496.75 867.157 1506.3 858.624C1515.86 850.091 1521.32 845.653 1522.69 845.312C1523.37 845.141 1524.05 844.971 1524.74 844.8C1525.08 847.019 1525.42 849.237 1525.76 851.456C1526.44 855.893 1527.64 859.648 1529.34 862.72C1531.05 865.792 1532.42 867.328 1533.44 867.328C1534.46 867.328 1536 868.864 1538.05 871.936C1540.1 875.008 1542.31 876.544 1544.7 876.544C1547.09 876.544 1554.26 872.789 1566.21 865.28C1578.15 857.771 1601.02 845.995 1634.82 829.952C1668.61 813.909 1704.62 793.088 1742.85 767.488C1781.08 741.888 1805.31 726.357 1815.55 720.896C1825.79 715.435 1831.42 712.875 1832.45 713.216ZM1160.7 717.312C1159.68 719.701 1159.85 721.749 1161.22 723.456C1162.58 725.163 1171.11 730.112 1186.82 738.304C1194.67 742.4 1202.52 746.496 1210.37 750.592C1207.64 751.104 1204.91 751.616 1202.18 752.128C1196.71 753.152 1188.18 753.835 1176.58 754.176C1164.97 754.517 1157.29 755.2 1153.54 756.224C1149.78 757.248 1142.78 757.589 1132.54 757.248C1122.3 756.907 1116.33 757.419 1114.62 758.784C1112.92 760.149 1112.06 761.685 1112.06 763.392C1112.06 765.099 1113.09 766.805 1115.14 768.512C1117.18 770.219 1122.82 772.437 1132.03 775.168C1141.25 777.899 1153.19 783.189 1167.87 791.04C1182.55 798.891 1192.11 802.816 1196.54 802.816C1200.98 802.816 1203.54 802.304 1204.22 801.28C1204.91 800.256 1205.08 798.549 1204.74 796.16C1204.39 793.771 1200.13 790.869 1191.94 787.456C1183.74 784.043 1175.72 780.117 1167.87 775.68C1163.95 773.461 1160.02 771.243 1156.1 769.024C1170.94 767.829 1185.79 766.635 1200.64 765.44C1230.34 763.051 1246.38 761.515 1248.77 760.832C1251.16 760.149 1253.03 758.955 1254.4 757.248C1255.77 755.541 1256.11 753.493 1255.42 751.104C1254.74 748.715 1253.72 747.179 1252.35 746.496C1250.99 745.813 1245.01 744.277 1234.43 741.888C1223.85 739.499 1213.27 735.403 1202.69 729.6C1192.11 723.797 1183.74 719.701 1177.6 717.312C1171.46 714.923 1167.36 713.728 1165.31 713.728C1163.26 713.728 1161.73 714.923 1160.7 717.312ZM1486.85 724.992C1487.53 724.992 1490.09 730.624 1494.53 741.888C1496.75 747.52 1498.97 753.152 1501.18 758.784C1499.14 759.296 1497.09 759.808 1495.04 760.32C1490.94 761.344 1487.19 762.88 1483.78 764.928C1480.36 766.976 1476.27 771.072 1471.49 777.216C1466.71 783.36 1463.81 790.869 1462.78 799.744C1461.76 808.619 1462.1 816.299 1463.81 822.784C1465.51 829.269 1467.05 833.365 1468.42 835.072C1469.78 836.779 1463.81 843.605 1450.5 855.552C1437.18 867.499 1412.44 888.32 1376.26 918.016C1340.07 947.712 1310.89 972.8 1288.7 993.28C1266.52 1013.76 1237.85 1038.85 1202.69 1068.54C1167.53 1098.24 1114.11 1147.22 1042.43 1215.49C970.752 1283.75 929.109 1322.5 917.504 1331.71C905.899 1340.93 898.731 1347.07 896 1350.14C893.269 1353.22 890.88 1355.09 888.832 1355.78C886.784 1356.46 882.859 1359.7 877.056 1365.5C871.253 1371.31 865.28 1376.26 859.136 1380.35C852.992 1384.45 848.555 1386.84 845.824 1387.52C843.093 1388.2 839.68 1390.59 835.584 1394.69C831.488 1398.78 828.075 1400.83 825.344 1400.83C822.613 1400.83 820.224 1398.61 818.176 1394.18C816.128 1389.74 814.763 1384.11 814.08 1377.28C813.397 1370.45 813.056 1356.12 813.056 1334.27C813.056 1312.43 813.909 1296.38 815.616 1286.14C817.323 1275.9 818.176 1259.52 818.176 1236.99C818.176 1214.46 819.541 1199.96 822.272 1193.47C825.003 1186.99 827.563 1182.21 829.952 1179.14C832.341 1176.06 836.608 1172.14 842.752 1167.36C848.896 1162.58 851.968 1159 851.968 1156.61C851.968 1154.22 878.763 1135.27 932.352 1099.78C985.941 1064.28 1091.58 992.939 1249.28 885.76C1406.98 778.581 1486.17 724.992 1486.85 724.992ZM1473.54 759.296C1471.49 760.32 1468.25 763.221 1463.81 768C1459.37 772.779 1455.79 778.581 1453.06 785.408C1450.33 792.235 1449.13 798.891 1449.47 805.376C1449.81 811.861 1451.52 818.176 1454.59 824.32C1457.66 830.464 1459.88 833.365 1461.25 833.024C1462.61 832.683 1463.3 830.976 1463.3 827.904C1463.3 824.832 1462.27 820.565 1460.22 815.104C1458.18 809.643 1457.32 804.864 1457.66 800.768C1458.01 796.672 1459.71 791.381 1462.78 784.896C1465.86 778.411 1468.76 773.632 1471.49 770.56C1474.22 767.488 1476.78 765.611 1479.17 764.928C1481.56 764.245 1482.92 763.392 1483.26 762.368C1483.61 761.344 1483.26 760.32 1482.24 759.296C1481.22 758.272 1480.02 757.76 1478.66 757.76C1477.29 757.76 1475.58 758.272 1473.54 759.296ZM1507.33 769.024C1510.74 769.024 1514.15 770.389 1517.57 773.12C1520.98 775.851 1523.2 780.288 1524.22 786.432C1525.25 792.576 1525.25 797.525 1524.22 801.28C1523.2 805.035 1521.49 808.789 1519.1 812.544C1516.71 816.299 1514.33 819.2 1511.94 821.248C1509.55 823.296 1505.28 825.685 1499.14 828.416C1492.99 831.147 1488.21 832.341 1484.8 832C1481.39 831.659 1479 830.976 1477.63 829.952C1476.27 828.928 1475.07 826.709 1474.05 823.296C1473.02 819.883 1472.34 815.957 1472 811.52C1471.66 807.083 1472 802.645 1473.02 798.208C1474.05 793.771 1476.78 788.821 1481.22 783.36C1485.65 777.899 1490.26 774.144 1495.04 772.096C1499.82 770.048 1503.91 769.024 1507.33 769.024ZM1505.28 788.992C1503.23 792.064 1500.5 793.6 1497.09 793.6C1493.67 793.6 1490.94 794.112 1488.9 795.136C1486.85 796.16 1485.82 797.525 1485.82 799.232C1485.82 800.939 1487.53 802.645 1490.94 804.352C1492.65 805.205 1494.36 806.059 1496.06 806.912C1495.21 808.619 1494.36 810.325 1493.5 812.032C1491.8 815.445 1490.94 818.347 1490.94 820.736C1490.94 823.125 1491.46 824.661 1492.48 825.344C1493.5 826.027 1494.87 826.027 1496.58 825.344C1498.28 824.661 1499.99 822.101 1501.7 817.664C1503.4 813.227 1506.3 811.349 1510.4 812.032C1514.5 812.715 1517.23 812.373 1518.59 811.008C1519.96 809.643 1518.93 806.912 1515.52 802.816C1512.11 798.72 1511.08 794.795 1512.45 791.04C1513.13 789.163 1513.81 787.285 1514.5 785.408C1513.47 785.237 1512.45 785.067 1511.42 784.896C1509.38 784.555 1507.33 785.92 1505.28 788.992ZM1167.36 880.64C1169.41 882.005 1171.63 882.859 1174.02 883.2C1176.41 883.541 1177.6 884.224 1177.6 885.248C1177.6 886.272 1174.19 887.808 1167.36 889.856C1160.53 891.904 1154.22 894.464 1148.42 897.536C1142.61 900.608 1129.47 909.312 1108.99 923.648C1088.51 937.984 1071.1 949.589 1056.77 958.464C1042.43 967.339 1029.63 976.043 1018.37 984.576C1007.1 993.109 993.621 1002.15 977.92 1011.71C962.219 1021.27 946.176 1032.19 929.792 1044.48C913.408 1056.77 893.611 1069.57 870.4 1082.88C847.189 1096.19 834.731 1103.7 833.024 1105.41C831.317 1107.11 829.952 1107.97 828.928 1107.97C827.904 1107.97 826.88 1106.94 825.856 1104.9C824.832 1102.85 824.491 1101.14 824.832 1099.78C825.173 1098.41 831.659 1093.8 844.288 1085.95C856.917 1078.1 868.864 1069.91 880.128 1061.38C891.392 1052.84 901.291 1045.85 909.824 1040.38C918.357 1034.92 932.693 1026.9 952.832 1016.32C972.971 1005.74 1000.96 988.672 1036.8 965.12C1072.64 941.568 1097.05 926.208 1110.02 919.04C1122.99 911.872 1133.06 905.728 1140.22 900.608C1147.39 895.488 1153.19 890.539 1157.63 885.76C1162.07 880.981 1165.31 879.275 1167.36 880.64ZM244.736 880.64C253.44 885.248 262.144 889.856 270.848 894.464C288.256 903.68 300.032 910.677 306.176 915.456C312.32 920.235 316.245 922.795 317.952 923.136C319.659 923.477 337.067 933.888 370.176 954.368C403.285 974.848 427.179 988.672 441.856 995.84C456.533 1003.01 467.627 1008.98 475.136 1013.76C482.645 1018.54 499.712 1027.24 526.336 1039.87C552.96 1052.5 571.904 1062.23 583.168 1069.06C594.432 1075.88 602.453 1080.32 607.232 1082.37C612.011 1084.42 623.275 1091.07 641.024 1102.34C658.773 1113.6 676.181 1123.33 693.248 1131.52C710.315 1139.71 728.917 1147.05 749.056 1153.54C769.195 1160.02 781.653 1165.31 786.432 1169.41C791.211 1173.5 794.795 1176.92 797.184 1179.65C799.573 1182.38 801.451 1185.79 802.816 1189.89C804.181 1193.98 804.693 1204.39 804.352 1221.12C804.011 1237.85 804.181 1246.55 804.864 1247.23C805.547 1247.91 805.888 1253.89 805.888 1265.15C805.888 1276.42 805.376 1284.95 804.352 1290.75C803.328 1296.55 802.645 1309.35 802.304 1329.15C801.963 1348.95 802.645 1365.67 804.352 1379.33C805.205 1386.15 806.059 1392.98 806.912 1399.81C805.888 1399.64 804.864 1399.47 803.84 1399.3C801.792 1398.95 784.384 1388.2 751.616 1367.04C718.848 1345.88 691.541 1328.81 669.696 1315.84C647.851 1302.87 626.347 1288.87 605.184 1273.86C584.021 1258.84 567.467 1248.26 555.52 1242.11C543.573 1235.97 538.965 1229.48 541.696 1222.66C544.427 1215.83 546.304 1209.86 547.328 1204.74C548.352 1199.62 549.035 1193.3 549.376 1185.79C549.717 1178.28 549.035 1170.09 547.328 1161.22C545.621 1152.34 543.915 1145.86 542.208 1141.76C540.501 1137.66 536.917 1131.69 531.456 1123.84C525.995 1115.99 519.339 1108.82 511.488 1102.34C503.637 1095.85 498.517 1092.1 496.128 1091.07C493.739 1090.05 488.789 1089.37 481.28 1089.02C473.771 1088.68 468.309 1089.19 464.896 1090.56C461.483 1091.93 457.045 1094.66 451.584 1098.75C446.123 1102.85 438.613 1107.11 429.056 1111.55C419.499 1115.99 411.648 1121.11 405.504 1126.91C399.36 1132.71 395.776 1136.98 394.752 1139.71C393.728 1142.44 392.875 1143.81 392.192 1143.81C391.509 1143.81 380.757 1137.83 359.936 1125.89C339.115 1113.94 322.389 1102.85 309.76 1092.61C297.131 1082.37 284.843 1073.83 272.896 1067.01C260.949 1060.18 253.44 1054.89 250.368 1051.14C247.296 1047.38 245.931 1031.51 246.272 1003.52C246.613 975.531 246.272 955.904 245.248 944.64C244.224 933.376 243.883 919.893 244.224 904.192C244.395 896.341 244.565 888.491 244.736 880.64ZM1701.38 907.264C1701.03 907.947 1701.38 908.629 1702.4 909.312C1702.91 909.653 1703.42 909.995 1703.94 910.336C1704.11 909.653 1704.28 908.971 1704.45 908.288C1704.62 907.605 1704.79 906.923 1704.96 906.24C1704.45 906.24 1703.94 906.24 1703.42 906.24C1702.4 906.24 1701.72 906.581 1701.38 907.264ZM1471.49 953.344C1464.66 956.075 1460.05 958.635 1457.66 961.024C1455.27 963.413 1450.5 971.093 1443.33 984.064C1436.16 997.035 1430.36 1010.01 1425.92 1022.98C1421.48 1035.95 1419.26 1045.67 1419.26 1052.16C1419.26 1058.65 1420.46 1065.98 1422.85 1074.18C1425.24 1082.37 1428.31 1090.56 1432.06 1098.75C1435.82 1106.94 1440.09 1113.6 1444.86 1118.72C1449.64 1123.84 1453.23 1126.4 1455.62 1126.4C1458.01 1126.4 1459.54 1125.72 1460.22 1124.35C1460.91 1122.99 1462.44 1122.65 1464.83 1123.33C1467.22 1124.01 1472.51 1122.99 1480.7 1120.26C1488.9 1117.53 1497.77 1113.6 1507.33 1108.48C1516.89 1103.36 1523.37 1098.07 1526.78 1092.61C1530.2 1087.15 1535.49 1075.54 1542.66 1057.79C1549.82 1040.04 1553.41 1029.97 1553.41 1027.58C1553.41 1025.19 1552.9 1023.32 1551.87 1021.95C1550.85 1020.59 1548.97 1020.25 1546.24 1020.93C1543.51 1021.61 1538.9 1031.17 1532.42 1049.6C1525.93 1068.03 1521.49 1079.3 1519.1 1083.39C1516.71 1087.49 1512.62 1091.24 1506.82 1094.66C1501.01 1098.07 1494.36 1100.97 1486.85 1103.36C1479.34 1105.75 1475.07 1107.46 1474.05 1108.48C1473.02 1109.5 1471.32 1109.33 1468.93 1107.97C1466.54 1106.6 1463.81 1103.36 1460.74 1098.24C1457.66 1093.12 1453.91 1088.17 1449.47 1083.39C1445.03 1078.61 1441.79 1076.05 1439.74 1075.71C1438.72 1075.54 1437.7 1075.37 1436.67 1075.2C1438.04 1074.18 1439.4 1073.15 1440.77 1072.13C1443.5 1070.08 1445.38 1067.18 1446.4 1063.42C1447.42 1059.67 1450.67 1052.16 1456.13 1040.9C1461.59 1029.63 1465.17 1020.25 1466.88 1012.74C1468.59 1005.23 1473.02 999.083 1480.19 994.304C1487.36 989.525 1492.65 985.429 1496.06 982.016C1499.48 978.603 1502.04 977.067 1503.74 977.408C1505.45 977.749 1507.84 979.115 1510.91 981.504C1513.98 983.893 1520.13 989.696 1529.34 998.912C1538.56 1008.13 1544.53 1012.91 1547.26 1013.25C1549.99 1013.59 1552.04 1012.91 1553.41 1011.2C1554.77 1009.49 1555.29 1006.42 1554.94 1001.98C1554.6 997.547 1552.9 991.915 1549.82 985.088C1546.75 978.261 1542.49 971.776 1537.02 965.632C1531.56 959.488 1526.1 955.392 1520.64 953.344C1515.18 951.296 1507.33 950.101 1497.09 949.76C1486.85 949.419 1478.31 950.613 1471.49 953.344ZM1493.5 964.608C1496.06 964.608 1498.62 964.608 1501.18 964.608C1501.18 964.949 1501.18 965.291 1501.18 965.632C1501.18 966.315 1494.19 971.264 1480.19 980.48C1466.2 989.696 1458.18 998.741 1456.13 1007.62C1454.08 1016.49 1449.64 1027.58 1442.82 1040.9C1439.4 1047.55 1435.99 1054.21 1432.58 1060.86C1432.41 1058.3 1432.23 1055.74 1432.06 1053.18C1431.72 1048.06 1432.06 1043.11 1433.09 1038.34C1434.11 1033.56 1438.21 1023.49 1445.38 1008.13C1452.54 992.768 1456.81 984.917 1458.18 984.576C1459.54 984.235 1461.93 982.016 1465.34 977.92C1468.76 973.824 1473.02 970.581 1478.14 968.192C1483.26 965.803 1488.38 964.608 1493.5 964.608ZM1511.42 964.608C1512.96 964.949 1514.5 965.291 1516.03 965.632C1519.1 966.315 1523.03 969.728 1527.81 975.872C1530.2 978.944 1532.59 982.016 1534.98 985.088C1531.05 981.675 1527.13 978.261 1523.2 974.848C1519.27 971.435 1515.35 968.021 1511.42 964.608ZM1487.87 1005.06C1482.41 1010.18 1476.78 1018.54 1470.98 1030.14C1465.17 1041.75 1462.1 1050.97 1461.76 1057.79C1461.42 1064.62 1461.59 1070.08 1462.27 1074.18C1462.95 1078.27 1464.49 1082.71 1466.88 1087.49C1469.27 1092.27 1471.49 1094.66 1473.54 1094.66C1475.58 1094.66 1476.95 1094.14 1477.63 1093.12C1478.31 1092.1 1477.63 1086.63 1475.58 1076.74C1473.54 1066.84 1472.68 1058.82 1473.02 1052.67C1473.37 1046.53 1475.24 1039.53 1478.66 1031.68C1482.07 1023.83 1484.97 1018.2 1487.36 1014.78C1489.75 1011.37 1492.48 1008.47 1495.55 1006.08C1498.62 1003.69 1500.16 1001.81 1500.16 1000.45C1500.16 999.083 1499.48 998.229 1498.11 997.888C1496.75 997.547 1493.33 999.936 1487.87 1005.06ZM1511.42 1001.98C1508.01 1003.69 1506.3 1004.89 1506.3 1005.57C1506.3 1005.91 1506.3 1006.25 1506.3 1006.59C1505.45 1006.59 1504.6 1006.59 1503.74 1006.59C1502.04 1006.59 1500.5 1007.1 1499.14 1008.13C1497.77 1009.15 1494.02 1014.27 1487.87 1023.49C1481.73 1032.7 1478.14 1039.19 1477.12 1042.94C1476.1 1046.7 1475.58 1052.16 1475.58 1059.33C1475.58 1066.5 1476.1 1072.3 1477.12 1076.74C1478.14 1081.17 1479.68 1084.42 1481.73 1086.46C1483.78 1088.51 1485.99 1089.71 1488.38 1090.05C1490.77 1090.39 1492.99 1090.22 1495.04 1089.54C1497.09 1088.85 1499.99 1086.98 1503.74 1083.9C1507.5 1080.83 1512.79 1073.32 1519.62 1061.38C1526.44 1049.43 1530.71 1039.87 1532.42 1032.7C1534.12 1025.54 1534.81 1019.9 1534.46 1015.81C1534.12 1011.71 1533.27 1008.47 1531.9 1006.08C1530.54 1003.69 1527.64 1001.98 1523.2 1000.96C1518.76 999.936 1514.84 1000.28 1511.42 1001.98ZM1509.38 1005.57C1509.55 1005.91 1509.72 1006.25 1509.89 1006.59C1510.06 1006.93 1510.23 1007.27 1510.4 1007.62C1510.06 1007.79 1509.72 1007.96 1509.38 1008.13C1509.03 1008.3 1508.69 1008.47 1508.35 1008.64C1508.18 1008.3 1508.01 1007.96 1507.84 1007.62C1507.67 1007.27 1507.5 1006.93 1507.33 1006.59C1507.67 1006.42 1508.01 1006.25 1508.35 1006.08C1508.69 1005.91 1509.03 1005.74 1509.38 1005.57ZM1511.42 1006.59C1512.96 1007.1 1514.5 1007.62 1516.03 1008.13C1519.1 1009.15 1520.98 1010.35 1521.66 1011.71C1522.35 1013.08 1522.86 1015.13 1523.2 1017.86C1523.54 1020.59 1523.03 1024.68 1521.66 1030.14C1520.3 1035.61 1517.06 1043.11 1511.94 1052.67C1506.82 1062.23 1502.04 1068.71 1497.6 1072.13C1495.38 1073.83 1493.16 1075.54 1490.94 1077.25C1490.43 1074.86 1489.92 1072.47 1489.41 1070.08C1488.38 1065.3 1488.21 1059.5 1488.9 1052.67C1489.58 1045.85 1491.46 1039.36 1494.53 1033.22C1497.6 1027.07 1500.84 1022.29 1504.26 1018.88C1507.67 1015.47 1509.72 1012.57 1510.4 1010.18C1510.74 1008.98 1511.08 1007.79 1511.42 1006.59ZM477.696 1103.87C480.085 1103.87 483.157 1104.73 486.912 1106.43C490.667 1108.14 495.787 1111.72 502.272 1117.18C508.757 1122.65 513.707 1127.94 517.12 1133.06C520.533 1138.18 523.605 1143.98 526.336 1150.46C529.067 1156.95 530.091 1166.17 529.408 1178.11C528.725 1190.06 527.531 1199.45 525.824 1206.27C524.117 1213.1 521.387 1218.9 517.632 1223.68C513.877 1228.46 510.293 1231.87 506.88 1233.92C503.467 1235.97 501.077 1236.82 499.712 1236.48C499.029 1236.31 498.347 1236.14 497.664 1235.97C498.859 1235.63 500.053 1235.29 501.248 1234.94C502.443 1234.6 503.637 1234.26 504.832 1233.92C503.979 1233.41 503.125 1232.9 502.272 1232.38C501.419 1231.87 500.565 1231.36 499.712 1230.85C501.077 1230.68 502.443 1230.51 503.808 1230.34C506.539 1229.99 508.075 1229.31 508.416 1228.29C508.587 1227.78 508.757 1227.26 508.928 1226.75C506.88 1226.24 504.832 1225.73 502.784 1225.22C498.688 1224.19 496.469 1223.17 496.128 1222.14C495.957 1221.63 495.787 1221.12 495.616 1220.61C498.517 1219.93 501.419 1219.24 504.32 1218.56C507.221 1217.88 510.123 1217.19 513.024 1216.51C510.293 1216.17 507.563 1215.83 504.832 1215.49C499.371 1214.81 496.64 1212.93 496.64 1209.86C496.64 1206.78 499.2 1204.74 504.32 1203.71C506.88 1203.2 509.44 1202.69 512 1202.18C509.44 1202.18 506.88 1202.18 504.32 1202.18C501.76 1202.18 499.2 1202.18 496.64 1202.18C496.64 1200.13 496.64 1198.08 496.64 1196.03C496.64 1191.94 500.565 1188.86 508.416 1186.82C512.341 1185.79 516.267 1184.77 520.192 1183.74C516.096 1184.43 512 1185.11 507.904 1185.79C499.712 1187.16 495.104 1185.28 494.08 1180.16C493.056 1175.04 495.957 1171.11 502.784 1168.38C506.197 1167.02 509.611 1165.65 513.024 1164.29C509.44 1165.14 505.856 1165.99 502.272 1166.85C495.104 1168.55 490.837 1167.36 489.472 1163.26C488.789 1161.22 488.107 1159.17 487.424 1157.12C489.813 1156.44 492.203 1155.75 494.592 1155.07C499.371 1153.71 503.637 1151.83 507.392 1149.44C509.269 1148.25 511.147 1147.05 513.024 1145.86C508.245 1147.22 503.467 1148.59 498.688 1149.95C489.131 1152.68 483.328 1152 481.28 1147.9C480.256 1145.86 479.232 1143.81 478.208 1141.76C479.573 1141.08 480.939 1140.39 482.304 1139.71C485.035 1138.35 486.741 1136.81 487.424 1135.1C487.765 1134.25 488.107 1133.4 488.448 1132.54C487.253 1132.71 486.059 1132.89 484.864 1133.06C482.475 1133.4 480.427 1134.25 478.72 1135.62C477.013 1136.98 475.648 1137.66 474.624 1137.66C473.6 1137.66 472.576 1136.98 471.552 1135.62C471.04 1134.93 470.528 1134.25 470.016 1133.57C472.576 1132.37 475.136 1131.18 477.696 1129.98C482.816 1127.59 486.571 1125.21 488.96 1122.82C490.155 1121.62 491.349 1120.43 492.544 1119.23C488.107 1120.94 483.669 1122.65 479.232 1124.35C474.795 1126.06 470.357 1127.77 465.92 1129.47C465.92 1128.79 465.92 1128.11 465.92 1127.42C465.92 1126.06 467.797 1124.18 471.552 1121.79C475.307 1119.4 477.355 1117.53 477.696 1116.16C478.037 1114.79 477.867 1113.77 477.184 1113.09C476.501 1112.41 475.307 1112.06 473.6 1112.06C471.893 1112.06 468.48 1113.6 463.36 1116.67C458.24 1119.74 454.485 1120.94 452.096 1120.26C450.901 1119.91 449.707 1119.57 448.512 1119.23C452.779 1116.67 457.045 1114.11 461.312 1111.55C469.845 1106.43 475.307 1103.87 477.696 1103.87ZM438.784 1135.62C445.269 1136.98 450.731 1138.86 455.168 1141.25C459.605 1143.64 464.384 1148.93 469.504 1157.12C474.624 1165.31 478.208 1173.67 480.256 1182.21C482.304 1190.74 483.328 1198.25 483.328 1204.74C483.328 1211.22 482.645 1216.68 481.28 1221.12C479.915 1225.56 478.037 1229.48 475.648 1232.9C473.259 1236.31 469.504 1238.53 464.384 1239.55C459.264 1240.58 453.803 1239.89 448 1237.5C442.197 1235.11 437.76 1232.55 434.688 1229.82C431.616 1227.09 427.349 1221.46 421.888 1212.93C416.427 1204.39 412.672 1196.71 410.624 1189.89C408.576 1183.06 407.723 1175.55 408.064 1167.36C408.405 1159.17 409.941 1153.02 412.672 1148.93C415.403 1144.83 418.816 1141.25 422.912 1138.18C427.008 1135.1 432.299 1134.25 438.784 1135.62ZM514.048 1145.34C514.389 1145.51 514.731 1145.69 515.072 1145.86C514.731 1145.69 514.389 1145.51 514.048 1145.34C513.707 1145.17 513.365 1145 513.024 1144.83C513.365 1145 513.707 1145.17 514.048 1145.34ZM514.048 1163.78C514.389 1163.95 514.731 1164.12 515.072 1164.29C514.731 1164.12 514.389 1163.95 514.048 1163.78C513.707 1163.61 513.365 1163.43 513.024 1163.26C513.365 1163.43 513.707 1163.61 514.048 1163.78ZM277.504 1173.5C279.381 1174.19 281.259 1174.87 283.136 1175.55C286.891 1176.92 291.84 1180.5 297.984 1186.3C304.128 1192.11 311.808 1198.08 321.024 1204.22C330.24 1210.37 338.773 1215.15 346.624 1218.56C354.475 1221.97 361.643 1225.9 368.128 1230.34C374.613 1234.77 383.147 1239.72 393.728 1245.18C404.309 1250.65 413.525 1254.91 421.376 1257.98C429.227 1261.06 439.637 1266.86 452.608 1275.39C465.579 1283.93 482.133 1293.82 502.272 1305.09C522.411 1316.35 541.525 1327.96 559.616 1339.9C577.707 1351.85 591.872 1360.38 602.112 1365.5C612.352 1370.62 630.101 1381.72 655.36 1398.78C680.619 1415.85 706.219 1431.55 732.16 1445.89C758.101 1460.22 778.24 1470.46 792.576 1476.61C806.912 1482.75 815.275 1487.36 817.664 1490.43C820.053 1493.5 821.419 1498.28 821.76 1504.77C822.101 1511.25 824.149 1521.66 827.904 1536C831.659 1550.34 834.048 1564.84 835.072 1579.52C836.096 1594.2 837.291 1605.29 838.656 1612.8C840.021 1620.31 840.533 1631.91 840.192 1647.62C840.021 1655.47 839.851 1663.32 839.68 1671.17C836.779 1670.14 833.877 1669.12 830.976 1668.1C825.173 1666.05 815.616 1661.44 802.304 1654.27C788.992 1647.1 754.176 1625.77 697.856 1590.27C641.536 1554.77 608.768 1534.63 599.552 1529.86C590.336 1525.08 573.44 1515.18 548.864 1500.16C524.288 1485.14 501.077 1472 479.232 1460.74C457.387 1449.47 438.443 1438.55 422.4 1427.97C406.357 1417.39 390.315 1408 374.272 1399.81C358.229 1391.62 344.405 1383.59 332.8 1375.74C321.195 1367.89 311.296 1361.92 303.104 1357.82C294.912 1353.73 289.792 1350.14 287.744 1347.07C285.696 1344 283.477 1314.3 281.088 1257.98C279.893 1229.82 278.699 1201.66 277.504 1173.5ZM521.216 1183.23C521.557 1183.4 521.899 1183.57 522.24 1183.74C521.899 1183.57 521.557 1183.4 521.216 1183.23C520.875 1183.06 520.533 1182.89 520.192 1182.72C520.533 1182.89 520.875 1183.06 521.216 1183.23Z" fill="#ff00c6" fill-rule="nonzero" opacity="1" stroke="#ff00c6" stroke-linecap="round" stroke-linejoin="round" stroke-width="10" vectornator:layerName="Kurve 1"/>
</g>
</svg>
